<svg id="Capa_1" enable-background="new 0 0 512 512" height="512" viewBox="0 0 512 512" width="512" xmlns="http://www.w3.org/2000/svg"><g><path d="m440.371 0h-368.742c-39.496 0-71.629 32.133-71.629 71.629v368.742c0 39.496 32.133 71.629 71.629 71.629h368.742c39.496 0 71.629-32.133 71.629-71.629v-368.742c0-39.496-32.133-71.629-71.629-71.629zm56.629 440.371c0 31.225-25.404 56.629-56.629 56.629h-368.742c-31.225 0-56.629-25.404-56.629-56.629v-368.742c0-31.225 25.404-56.629 56.629-56.629h368.742c31.225 0 56.629 25.404 56.629 56.629z"/><path d="m111.71 464.936h-40.081c-13.545 0-24.564-11.02-24.564-24.564v-368.743c0-13.545 11.02-24.565 24.564-24.565h304.611c4.142 0 7.5-3.358 7.5-7.5s-3.358-7.5-7.5-7.5h-304.611c-21.816 0-39.564 17.749-39.564 39.565v368.742c0 21.816 17.749 39.564 39.564 39.564h40.082c4.142 0 7.5-3.358 7.5-7.5s-3.358-7.499-7.501-7.499z"/><path d="m440.371 32.064h-32.068c-4.142 0-7.5 3.358-7.5 7.5s3.358 7.5 7.5 7.5h32.068c13.545 0 24.564 11.02 24.564 24.565v368.742c0 13.545-11.02 24.564-24.564 24.564h-296.596c-4.142 0-7.5 3.358-7.5 7.5s3.358 7.5 7.5 7.5h296.596c21.816 0 39.564-17.749 39.564-39.564v-368.742c.001-21.816-17.748-39.565-39.564-39.565z"/><path d="m231.952 423.823c30.711 0 59.338-12.207 80.608-34.371 2.868-2.989 2.771-7.736-.218-10.604s-7.737-2.771-10.604.218c-18.415 19.189-43.199 29.757-69.786 29.757-53.326 0-96.71-43.384-96.71-96.71 0-36.194 19.957-69.079 52.082-85.821 3.673-1.914 5.099-6.444 3.185-10.117s-6.443-5.1-10.117-3.185c-37.102 19.336-60.149 57.317-60.149 99.123-.001 61.597 50.111 111.71 111.709 111.71z"/><path d="m191.323 261.827c3.22-2.605 3.719-7.328 1.113-10.548-2.605-3.22-7.328-3.719-10.548-1.113-18.799 15.21-29.582 37.789-29.582 61.947 0 43.917 35.729 79.645 79.645 79.645 24.156 0 46.734-10.781 61.944-29.579 2.606-3.22 2.108-7.943-1.112-10.548s-7.942-2.107-10.548 1.113c-12.349 15.261-30.677 24.014-50.284 24.014-35.646 0-64.645-29-64.645-64.645.001-19.609 8.754-37.937 24.017-50.286z"/><path d="m338.095 408.332c3.367 9.266 12.254 15.491 22.114 15.491h24.049c12.976 0 23.532-10.557 23.532-23.532s-10.557-23.532-23.532-23.532h-7.566l-26.433-72.687c-3.367-9.266-12.254-15.491-22.114-15.491h-72.661v-41.113h48.613c12.976 0 23.532-10.556 23.532-23.532s-10.557-23.532-23.532-23.532h-48.613v-8.532c0-12.976-10.557-23.532-23.532-23.532s-23.532 10.556-23.532 23.532v120.242c0 12.976 10.557 23.532 23.532 23.532h79.711zm-114.676-96.219v-120.242c0-4.705 3.828-8.532 8.532-8.532s8.532 3.828 8.532 8.532v16.032c0 4.142 3.358 7.5 7.5 7.5h56.113c4.705 0 8.532 3.828 8.532 8.532s-3.828 8.532-8.532 8.532h-56.113c-4.142 0-7.5 3.358-7.5 7.5v56.113c0 4.142 3.358 7.5 7.5 7.5h80.161c3.575 0 6.796 2.256 8.017 5.616l28.229 77.625c1.078 2.964 3.895 4.937 7.048 4.937h12.819c4.705 0 8.532 3.828 8.532 8.532 0 4.705-3.828 8.532-8.532 8.532h-24.049c-3.574 0-6.796-2.256-8.017-5.616l-28.229-77.625c-1.078-2.964-3.895-4.937-7.048-4.937h-84.964c-4.703.001-8.531-3.826-8.531-8.531z"/><path d="m231.952 151.274c17.396 0 31.548-14.153 31.548-31.548s-14.152-31.548-31.548-31.548-31.548 14.153-31.548 31.548 14.152 31.548 31.548 31.548zm0-48.097c9.125 0 16.548 7.424 16.548 16.548s-7.423 16.548-16.548 16.548-16.548-7.424-16.548-16.548 7.423-16.548 16.548-16.548z"/></g></svg>