<?xml version="1.0" encoding="UTF-8"?>
<svg xmlns="http://www.w3.org/2000/svg" xmlns:xlink="http://www.w3.org/1999/xlink" width="512" height="512" viewBox="0 0 60 59" version="1.1"><!-- Generator: Sketch 51.3 (57544) - http://www.bohemiancoding.com/sketch --><title>031 - Wheelchair ramp</title><desc>Created with Sketch.</desc><defs/><g id="Page-1" stroke="none" stroke-width="1" fill="none" fill-rule="evenodd"><g id="031---Wheelchair-ramp" fill="#000000" fill-rule="nonzero"><path d="M19,4.5 C19,6.98528137 21.0147186,9 23.5,9 C25.9852814,9 28,6.98528137 28,4.5 C28,2.01471863 25.9852814,6.66133815e-16 23.5,0 C21.0158609,0.00275556448 19.0027556,2.01586091 19,4.5 Z M26,4.5 C26,5.88071187 24.8807119,7 23.5,7 C22.1192881,7 21,5.88071187 21,4.5 C21,3.11928813 22.1192881,2 23.5,2 C24.8807119,2 26,3.11928813 26,4.5 Z" id="Shape"/><path d="M59.568,35.177 C59.297696,34.9905524 58.9530815,34.9486903 58.646,35.065 L45.976,39.871 C46.0349473,39.0419073 45.7955402,38.2190564 45.301,37.551 L37.715,27.4 C37.0442201,26.5224398 36.0045491,26.0053743 34.9,26 L27,26 L27,23 L31.47,23 C32.4012131,23.0180222 33.30043,22.6601788 33.9646411,22.0072574 C34.6288522,21.354336 35.0020571,20.4613852 35,19.53 C35.0021289,19.3864507 34.9897325,19.2430542 34.963,19.102 C34.7514396,17.3330419 33.2515638,16.0010594 31.47,16 L27,16 L27,14.53 C27,12.5970034 25.4329966,11.03 23.5,11.03 C21.5670034,11.03 20,12.5970034 20,14.53 L20,14.56 C11.5211603,16.2722505 5.57526072,23.9360495 6.02364947,32.5744216 C6.47203822,41.2127937 13.1794499,48.2198021 21.79,49.045 L0.646,57.065 C0.194740246,57.2361636 -0.0698806752,57.7052079 0.0169730459,58.1799592 C0.103826767,58.6547105 0.517369456,58.9996877 1,59 L55,59 C57.7600532,58.9966939 59.9966939,56.7600532 60,54 L60,36 C59.9999906,35.6713451 59.8384923,35.363676 59.568,35.177 Z M22,14.53 C22.0005516,13.6852329 22.6852329,13.0005516 23.53,13 C23.9291602,13.0038482 24.3099631,13.1682346 24.5865246,13.4560842 C24.863086,13.7439339 25.0121149,14.1310052 25,14.53 L25,17 C25,17.5522847 25.4477153,18 26,18 L31.47,18 C32.2657083,18.0110807 32.9232044,18.6240228 32.99,19.417 C32.9969307,19.4542614 33.0002793,19.4921006 33,19.53 C32.9961518,19.9291602 32.8317654,20.3099631 32.5439158,20.5865246 C32.2560661,20.863086 31.8689948,21.0121149 31.47,21 L26,21 C25.4477153,21 25,21.4477153 25,22 L25,27 C25,27.5522847 25.4477153,28 26,28 L34.9,28 C35.3784246,28.0035356 35.8283676,28.2279534 36.119,28.608 L43.7,38.749 C44.1782466,39.3955606 44.0747236,40.3019324 43.463,40.824 L42.472,41.2 C41.9926246,41.2004723 41.5410029,40.9752171 41.253,40.592 L35.58,33 L34.442,31.421 C34.255131,31.1578538 33.9527458,31.0010752 33.63,31 L23.53,31 C22.6852329,30.9994484 22.0005516,30.3147671 22,29.47 L22,14.53 Z M23.53,33 L33.117,33 L33.656,33.726 C32.5810807,38.9436809 27.7372517,42.5054506 22.4363686,41.9760318 C17.1354856,41.446613 13.091762,36.9972105 13.07,31.67 C13.1012115,27.2748735 15.866567,23.3642699 20,21.87 L20,29.47 C20.0016542,31.4188796 21.5811204,32.9983458 23.53,33 Z M8,31.67 C8.05023647,24.4818935 13.0056987,18.2586588 20,16.6 L20,19.77 C14.0833988,21.5030413 10.3386383,27.3196478 11.2101766,33.4229275 C12.0817148,39.5262071 17.3048122,44.0622183 23.47,44.07 C28.7418538,44.0843645 33.4414735,40.7504463 35.17,35.77 L37.265,38.589 C34.058775,44.9968029 26.8673977,48.3590938 19.894451,46.7105095 C12.9215042,45.0619253 7.99722205,38.8351803 8,31.67 Z M38.594,40.37 L39.653,41.794 C39.755961,41.9177469 39.8672176,42.0343492 39.986,42.143 L36.213,43.574 C37.1263766,42.6003964 37.9252481,41.5253925 38.594,40.37 Z M58,54 C58,55.6568542 56.6568542,57 55,57 L6.456,57 L58,37.449 L58,54 Z" id="Shape"/></g></g></svg>
