<svg height="512" viewBox="0 0 64 64" width="512" xmlns="http://www.w3.org/2000/svg"><g id="Van-4" data-name="Van"><path d="m59.949 25.536-10.484-10.486a6.958 6.958 0 0 0 -4.95-2.05h-39.515a3 3 0 0 0 -3 3v24a5.006 5.006 0 0 0 5 5h1.08a6.991 6.991 0 0 0 13.84 0h20.16a6.991 6.991 0 0 0 13.84 0h3.08a3 3 0 0 0 3-3v-11.515a6.951 6.951 0 0 0 -2.051-4.949zm-1.373 1.464h-18.576v-8h10.586l7.949 7.95c.016.016.026.034.041.05zm-20.576 0h-30v-8h30zm-34 13v-7h3v-2h-3v-15a1 1 0 0 1 1-1h39.515a4.973 4.973 0 0 1 3.536 1.464l.535.536h-40.586a2 2 0 0 0 -2 2v8a2 2 0 0 0 2 2h30v14h-16.08a6.991 6.991 0 0 0 -13.84 0h-1.08a3 3 0 0 1 -3-3zm11 9a5 5 0 1 1 5-5 5.006 5.006 0 0 1 -5 5zm34 0a5 5 0 1 1 5-5 5.006 5.006 0 0 1 -5 5zm10-6h-3.08a6.991 6.991 0 0 0 -13.84 0h-2.08v-14h19.752a5 5 0 0 1 .248 1.485v.515h-3a3 3 0 0 0 0 6h3v2h-3v2h3v1a1 1 0 0 1 -1 1zm1-10v2h-3a1 1 0 0 1 0-2z"/><path d="m42 31h4v2h-4z"/><path d="m14 43h2v2h-2z"/><path d="m48 43h2v2h-2z"/></g></svg>