<?xml version="1.0"?>
<svg xmlns="http://www.w3.org/2000/svg" viewBox="0 0 64 64" width="512" height="512"><g id="outline"><path d="M44,24a9.01,9.01,0,0,0,9-9V11a9,9,0,0,0-18,0v4A9.01,9.01,0,0,0,44,24ZM37,11a7,7,0,0,1,14,0v4a7,7,0,0,1-14,0Z"/><path d="M53,26H40v2h.323l1.659,4.148L40,53.909a1,1,0,0,0,.289.8l3,3a1,1,0,0,0,1.414,0l3-3a1,1,0,0,0,.289-.8L46.018,32.148,47.677,28H53a7.008,7.008,0,0,1,7,7V60H55V35H53V60H35V56H33v4H27v2H61a1,1,0,0,0,1-1V35A9.01,9.01,0,0,0,53,26Zm-7.477,2-1.2,3h-.646l-1.2-3ZM44,55.586l-1.962-1.962L43.913,33h.174l1.875,20.624Z"/><path d="M14.325,58.822l5.168,3.04a1,1,0,0,0,1.014,0l5.168-3.04A25.1,25.1,0,0,0,38,37.273V26a1,1,0,0,0-1-1,26.169,26.169,0,0,1-15.6-5.2l-.8-.6a1,1,0,0,0-1.2,0l-.8.6A26.164,26.164,0,0,1,3,25a1,1,0,0,0-1,1V37.273A25.1,25.1,0,0,0,14.325,58.822ZM4,26.981A28.182,28.182,0,0,0,19.8,21.4l.2-.149.2.149A28.182,28.182,0,0,0,36,26.981V37.273A23.092,23.092,0,0,1,24.662,57.1L20,59.84,15.338,57.1A23.092,23.092,0,0,1,4,37.273Z"/><path d="M16.353,55.374l3.14,1.848a1.007,1.007,0,0,0,1.014,0l3.14-1.847A21.084,21.084,0,0,0,34,37.273V29.736a1,1,0,0,0-.87-.991,30.354,30.354,0,0,1-12.583-4.661,1,1,0,0,0-1.094,0A30.364,30.364,0,0,1,6.87,28.745a1,1,0,0,0-.87.991v7.537A21.081,21.081,0,0,0,16.353,55.374ZM8,30.6a32.383,32.383,0,0,0,12-4.494A32.383,32.383,0,0,0,32,30.6v6.672A19.072,19.072,0,0,1,22.633,53.65L20,55.2l-2.634-1.55A19.07,19.07,0,0,1,8,37.273Z"/><rect x="19" y="29" width="2" height="2"/><rect x="10" y="32" width="2" height="2"/><rect x="10" y="39" width="2" height="2"/><rect x="28" y="32" width="2" height="2"/><rect x="28" y="39" width="2" height="2"/><rect x="13" y="45" width="2" height="2"/><rect x="25" y="45" width="2" height="2"/><rect x="19" y="50" width="2" height="2"/></g></svg>
