<?xml version="1.0" encoding="iso-8859-1"?>
<!-- Generator: Adobe Illustrator 19.0.0, SVG Export Plug-In . SVG Version: 6.00 Build 0)  -->
<svg version="1.1" id="Capa_1" xmlns="http://www.w3.org/2000/svg" xmlns:xlink="http://www.w3.org/1999/xlink" x="0px" y="0px"
	 viewBox="0 0 480 480" style="enable-background:new 0 0 480 480;" xml:space="preserve">
<g>
	<g>
		<path d="M472,416h-8V128c0-17.673-14.327-32-32-32H296.888c4.526-10.071,6.947-20.96,7.112-32c0-35.346-28.654-64-64-64
			c-35.346,0-64,28.654-64,64c0.165,11.04,2.586,21.929,7.112,32H48c-17.673,0-32,14.327-32,32v288H8c-4.418,0-8,3.582-8,8v24
			c0,17.673,14.327,32,32,32h416c17.673,0,32-14.327,32-32v-24C480,419.582,476.418,416,472,416z M240,16
			c26.499,0.026,47.974,21.501,48,48c0,35.504-35.128,67.376-48,77.864c-12.872-10.488-48-42.36-48-77.864
			C192.026,37.501,213.501,16.026,240,16z M32,128c0-8.837,7.163-16,16-16h143.552c10.998,16.77,24.661,31.632,40.448,44v4
			c0,17.673,14.327,32,32,32h48c8.837,0,16,7.163,16,16s-7.163,16-16,16H176c-17.673,0-32,14.327-32,32s14.327,32,32,32h168
			c8.837,0,16,7.163,16,16s-7.163,16-16,16H144c-17.673,0-32,14.327-32,32v16H72V152h128v-16H64c-4.418,0-8,3.582-8,8v232
			c0,4.418,3.582,8,8,8h352c4.418,0,8-3.582,8-8V144c0-4.418-3.582-8-8-8H280v16h128v216H128v-16c0-8.837,7.163-16,16-16h200
			c17.673,0,32-14.327,32-32c0-17.673-14.327-32-32-32H176c-8.837,0-16-7.163-16-16s7.163-16,16-16h136c17.673,0,32-14.327,32-32
			s-14.327-32-32-32h-48c-8.837,0-16-7.163-16-16v-4c15.787-12.368,29.45-27.23,40.448-44H432c8.837,0,16,7.163,16,16v288H312
			c-2.122,0-4.156,0.844-5.656,2.344L292.688,432H187.312l-13.656-13.656c-1.5-1.5-3.534-2.344-5.656-2.344H32V128z M464,448
			c0,8.837-7.163,16-16,16H32c-8.837,0-16-7.163-16-16v-16h148.688l13.656,13.656c1.5,1.5,3.534,2.344,5.656,2.344h112
			c2.122,0,4.156-0.844,5.656-2.344L315.312,432H464V448z"/>
	</g>
</g>
<g>
	<g>
		<rect x="232" y="400" width="16" height="16"/>
	</g>
</g>
<g>
	<g>
		<path d="M240,32c-17.673,0-32,14.327-32,32s14.327,32,32,32c17.673,0,32-14.327,32-32S257.673,32,240,32z M240,80
			c-8.837,0-16-7.163-16-16s7.163-16,16-16s16,7.163,16,16S248.837,80,240,80z"/>
	</g>
</g>
<g>
</g>
<g>
</g>
<g>
</g>
<g>
</g>
<g>
</g>
<g>
</g>
<g>
</g>
<g>
</g>
<g>
</g>
<g>
</g>
<g>
</g>
<g>
</g>
<g>
</g>
<g>
</g>
<g>
</g>
</svg>
