<svg id="icons" enable-background="new 0 0 64 64" height="512" viewBox="0 0 64 64" width="512" xmlns="http://www.w3.org/2000/svg"><g><g><path d="m62.001 48.004c-.553 0-1-.447-1-1 0-2.454-1.753-4.528-4.168-4.932-.544-.091-.912-.606-.821-1.151.092-.544.605-.919 1.151-.821 3.383.565 5.838 3.469 5.838 6.904 0 .553-.447 1-1 1z"/></g><g><path d="m62.001 50.002c-.553 0-1-.447-1-1v-1.998c0-.553.447-1 1-1s1 .447 1 1v1.998c0 .553-.447 1-1 1z"/></g><g><path d="m63 55.002c-.553 0-1-.447-1-1v-4h-1c-.553 0-1-.447-1-1s.447-1 1-1h2c.553 0 1 .447 1 1v5c0 .553-.447 1-1 1z"/></g><g><path d="m44.173 55.002h-24.347c-.553 0-1-.447-1-1s.447-1 1-1h24.347c.553 0 1 .447 1 1s-.447 1-1 1z"/></g><g><path d="m5.003 55.002c-.208 0-.419-.065-.599-.2l-4.004-3c-.442-.331-.532-.957-.2-1.399.33-.44.956-.532 1.399-.2l4.004 3c.442.331.532.957.2 1.399-.196.261-.495.4-.8.4z"/></g><g><path d="m1 52.002c-.553 0-1-.447-1-1v-12.004c0-.553.447-1 1-1s1 .447 1 1v12.004c0 .553-.447 1-1 1z"/></g><g><path d="m6.002 39.998h-5.002c-.553 0-1-.447-1-1s.447-1 1-1h5.002c.553 0 1 .447 1 1s-.447 1-1 1z"/></g><g><path d="m46.001 40.998c-.235 0-.473-.083-.663-.252-.087-.078-8.862-7.75-19.343-7.75-10.539 0-19.291 6.723-19.379 6.791-.436.338-1.063.26-1.403-.175-.339-.436-.261-1.063.175-1.403.378-.294 9.388-7.213 20.607-7.213 11.256 0 20.292 7.918 20.671 8.255.413.366.45.998.084 1.411-.198.222-.473.336-.749.336z"/></g><g><path d="m57.002 42.086c-.032 0-.065-.002-.099-.005l-10.999-1.084c-.55-.054-.952-.544-.897-1.093.054-.549.539-.945 1.093-.897l10.999 1.084c.55.054.952.544.897 1.093-.051.516-.485.902-.994.902z"/></g><g><path d="m46.002 40.998h-21.998c-.553 0-1-.447-1-1s.447-1 1-1h21.998c.553 0 1 .447 1 1s-.447 1-1 1z"/></g><g><path d="m24.003 40.998c-.139 0-.28-.029-.414-.091l-11.002-5.025c-.503-.229-.724-.822-.494-1.324s.823-.725 1.324-.494l11.002 5.025c.503.229.724.822.494 1.324-.168.368-.53.585-.91.585z"/></g><g><path d="m24.004 40.998c-.553 0-1-.447-1-1v-7.918c0-.553.447-1 1-1s1 .447 1 1v7.918c0 .553-.447 1-1 1z"/></g><g><path d="m13.5 60.002c-4.136 0-7.5-3.364-7.5-7.5s3.364-7.5 7.5-7.5 7.5 3.364 7.5 7.5-3.364 7.5-7.5 7.5zm0-13c-3.032 0-5.5 2.468-5.5 5.5s2.468 5.5 5.5 5.5 5.5-2.468 5.5-5.5-2.468-5.5-5.5-5.5z"/></g><g><path d="m13.5 56.002c-1.93 0-3.5-1.57-3.5-3.5s1.57-3.5 3.5-3.5 3.5 1.57 3.5 3.5-1.57 3.5-3.5 3.5zm0-5c-.827 0-1.5.673-1.5 1.5s.673 1.5 1.5 1.5 1.5-.673 1.5-1.5-.673-1.5-1.5-1.5z"/></g><g><path d="m50.499 60.002c-4.136 0-7.5-3.364-7.5-7.5s3.364-7.5 7.5-7.5 7.5 3.364 7.5 7.5-3.364 7.5-7.5 7.5zm0-13c-3.032 0-5.5 2.468-5.5 5.5s2.468 5.5 5.5 5.5 5.5-2.468 5.5-5.5-2.468-5.5-5.5-5.5z"/></g><g><path d="m50.495 56.002c-1.93 0-3.5-1.57-3.5-3.5s1.57-3.5 3.5-3.5 3.5 1.57 3.5 3.5-1.57 3.5-3.5 3.5zm0-5c-.827 0-1.5.673-1.5 1.5s.673 1.5 1.5 1.5 1.5-.673 1.5-1.5-.673-1.5-1.5-1.5z"/></g><g><path d="m7.175 55.002h-2.171c-.553 0-1-.447-1-1s.447-1 1-1h2.171c.553 0 1 .447 1 1s-.447 1-1 1z"/></g><g><path d="m63 55.002h-6.176c-.553 0-1-.447-1-1s.447-1 1-1h6.176c.553 0 1 .447 1 1s-.447 1-1 1z"/></g><g><path d="m31 33.525c-.553 0-1-.447-1-1v-2.529h-7v2.297c0 .553-.447 1-1 1s-1-.447-1-1v-3.297c0-.553.447-1 1-1h9c.553 0 1 .447 1 1v3.529c0 .553-.447 1-1 1z"/></g><g><g><path d="m51.999 35.998c-6.617 0-12-5.383-12-12s5.383-12 12-12 12 5.383 12 12-5.383 12-12 12zm0-22c-5.514 0-10 4.486-10 10s4.486 10 10 10 10-4.486 10-10-4.486-10-10-10z"/></g><g><path d="m51.999 32.998c-4.963 0-9-4.037-9-9s4.037-9 9-9 9 4.037 9 9-4.037 9-9 9zm0-16c-3.859 0-7 3.141-7 7s3.141 7 7 7 7-3.141 7-7-3.141-7-7-7z"/></g><g><path d="m51.999 17.998c-.553 0-1-.447-1-1v-1c0-.553.447-1 1-1s1 .447 1 1v1c0 .553-.447 1-1 1z"/></g><g><path d="m51.999 32.998c-.553 0-1-.447-1-1v-1c0-.553.447-1 1-1s1 .447 1 1v1c0 .553-.447 1-1 1z"/></g><g><path d="m45.937 21.498c-.17 0-.341-.043-.498-.134l-.867-.5c-.479-.275-.644-.888-.367-1.365.274-.479.887-.643 1.365-.367l.867.5c.479.275.644.888.367 1.365-.185.321-.522.501-.867.501z"/></g><g><path d="m58.927 28.998c-.17 0-.341-.043-.498-.134l-.867-.5c-.479-.275-.644-.888-.367-1.365.275-.479.888-.645 1.365-.367l.867.5c.479.275.644.888.367 1.365-.185.321-.522.501-.867.501z"/></g><g><path d="m45.071 28.998c-.346 0-.683-.18-.867-.501-.276-.478-.111-1.09.367-1.365l.867-.5c.479-.276 1.091-.111 1.365.367.276.478.111 1.09-.367 1.365l-.867.5c-.157.091-.329.134-.498.134z"/></g><g><path d="m58.062 21.498c-.346 0-.683-.18-.867-.501-.276-.478-.111-1.09.367-1.365l.867-.5c.479-.277 1.091-.111 1.365.367.276.478.111 1.09-.367 1.365l-.867.5c-.158.091-.33.134-.498.134z"/></g><g><path d="m51.999 24.998c-.553 0-1-.447-1-1v-4c0-.553.447-1 1-1s1 .447 1 1v4c0 .553-.447 1-1 1z"/></g><g><path d="m51.998 13.998c-2.757 0-5-2.243-5-5s2.243-5 5-5 5 2.243 5 5-2.243 5-5 5zm0-8c-1.654 0-3 1.346-3 3s1.346 3 3 3 3-1.346 3-3-1.346-3-3-3z"/></g><g><path d="m51.998 13.998c-.553 0-1-.447-1-1v-3c0-.553.447-1 1-1s1 .447 1 1v3c0 .553-.447 1-1 1z"/></g><g><path d="m52.999 10.998h-2c-.553 0-1-.447-1-1s.447-1 1-1h2c.553 0 1 .447 1 1s-.447 1-1 1z"/></g></g></g></svg>