<svg xmlns="http://www.w3.org/2000/svg" style="display: none;"><symbol id="airplane" viewBox="0 0 511 511.99953"><title>airplane</title><path d="m458.53125 206.539062c0-2.628906-1.070312-5.210937-2.929688-7.070312-1.859374-1.859375-4.441406-2.929688-7.070312-2.929688s-5.210938 1.070313-7.070312 2.929688c-1.859376 1.859375-2.929688 4.441406-2.929688 7.070312 0 2.640626 1.070312 5.210938 2.929688 7.070313 1.859374 1.871094 4.441406 2.929687 7.070312 2.929687s5.210938-1.058593 7.070312-2.929687c1.859376-1.859375 2.929688-4.441406 2.929688-7.070313zm0 0"/><path d="m328.496094 169.574219 64.480468 82.605469c3.816407 4.886718 9.5625 7.691406 15.765626 7.691406h.003906c6.203125 0 11.949218-2.804688 15.765625-7.699219l6.609375-8.46875c3.394531-4.355469 2.621094-10.640625-1.734375-14.039063-4.351563-3.398437-10.636719-2.621093-14.035157 1.734376l-6.609374 8.472656-63.882813-81.847656c-.21875-.335938-.453125-.660157-.714844-.976563-12.347656-14.945313-19.148437-33.875-19.148437-53.300781 0-22.589844 8.859375-43.765625 24.941406-59.628906 16.082031-15.859376 37.398438-24.410157 59.996094-24.109376 45.839844.632813 82.875 38.464844 82.558594 84.332032-.132813 19.273437-6.632813 37.351562-18.796876 52.273437-.113281.140625-.222656.28125-.332031.429688l-8.800781 11.277343c-3.394531 4.355469-2.621094 10.640626 1.734375 14.039063 4.355469 3.394531 10.636719 2.621094 14.035156-1.734375l9.007813-11.542969c.023437-.035156.050781-.070312.078125-.105469 14.71875-18.183593 22.910156-41.074218 23.074219-64.496093.390624-56.820313-45.492188-103.6875-102.285157-104.4687502-27.992187-.3945308-54.394531 10.2226562-74.3125 29.8671872-19.925781 19.652344-30.898437 45.886719-30.898437 73.871094 0 23.726562 8.195312 46.863281 23.09375 65.261719.128906.191406.265625.378906.40625.5625zm0 0"/><path d="m358.566406 103.75c0 27.667969 22.507813 50.175781 50.175782 50.175781 27.667968 0 50.179687-22.507812 50.179687-50.175781s-22.511719-50.179688-50.179687-50.179688c-27.667969 0-50.175782 22.511719-50.175782 50.179688zm80.355469 0c0 16.636719-13.539063 30.175781-30.179687 30.175781-16.640626 0-30.179688-13.539062-30.179688-30.175781 0-16.640625 13.539062-30.179688 30.179688-30.179688 16.640624 0 30.179687 13.539063 30.179687 30.179688zm0 0"/><path d="m468.746094 385.214844c-1.179688.703125-2.402344 1.363281-3.640625 1.960937-4.972657 2.410157-7.050781 8.390625-4.644531 13.359375 1.726562 3.566406 5.292968 5.644532 9.007812 5.644532 1.460938 0 2.945312-.320313 4.351562-1 1.75-.847657 3.484376-1.78125 5.15625-2.773438 4.746094-2.828125 6.304688-8.960938 3.476563-13.710938-2.824219-4.746093-8.957031-6.300781-13.707031-3.480468zm0 0"/><path d="m250.351562 392h-5c-5.523437 0-10 4.476562-10 10s4.476563 10 10 10h5c5.519532 0 10-4.476562 10-10s-4.476562-10-10-10zm0 0"/><path d="m286.492188 295c5.523437 0 10-4.476562 10-10s-4.476563-10-10-10h-5c-5.523438 0-10 4.476562-10 10s4.476562 10 10 10zm0 0"/><path d="m497.488281 329.78125c1.355469 0 2.738281-.277344 4.054688-.863281 5.050781-2.242188 7.320312-8.152344 5.078125-13.199219-.792969-1.78125-1.667969-3.542969-2.601563-5.238281-2.664062-4.839844-8.746093-6.597657-13.585937-3.933594-4.835938 2.667969-6.597656 8.75-3.929688 13.585937.660156 1.199219 1.28125 2.449219 1.839844 3.707032 1.65625 3.730468 5.3125 5.941406 9.144531 5.941406zm0 0"/><path d="m503.074219 349.234375c-5.332031-1.453125-10.828125 1.695313-12.273438 7.023437-.363281 1.328126-.785156 2.652344-1.257812 3.941407-1.902344 5.1875.757812 10.929687 5.941406 12.835937 1.136719.414063 2.300781.613282 3.445313.613282 4.074218 0 7.902343-2.511719 9.386718-6.558594.671875-1.828125 1.269532-3.703125 1.78125-5.582032 1.449219-5.328124-1.695312-10.824218-7.023437-12.273437zm0 0"/><path d="m421.492188 295c5.523437 0 10-4.476562 10-10s-4.476563-10-10-10h-5c-5.523438 0-10 4.476562-10 10s4.476562 10 10 10zm0 0"/><path d="m340.351562 392h-5c-5.523437 0-10 4.476562-10 10s4.476563 10 10 10h5c5.519532 0 10-4.476562 10-10s-4.476562-10-10-10zm0 0"/><path d="m465.933594 299.257812c3.953125 0 7.695312-2.359374 9.273437-6.246093 2.070313-5.121094-.394531-10.949219-5.515625-13.023438-1.804687-.730469-3.664062-1.394531-5.523437-1.964843-5.285157-1.625-10.875 1.335937-12.5 6.613281-1.625 5.28125 1.335937 10.875 6.617187 12.5 1.3125.40625 2.625.871093 3.898438 1.386719 1.230468.5 2.5.734374 3.75.734374zm0 0"/><path d="m376.492188 295c5.523437 0 10-4.476562 10-10s-4.476563-10-10-10h-5c-5.523438 0-10 4.476562-10 10s4.476562 10 10 10zm0 0"/><path d="m430.351562 392h-5c-5.523437 0-10 4.476562-10 10s4.476563 10 10 10h5c5.519532 0 10-4.476562 10-10s-4.476562-10-10-10zm0 0"/><path d="m385.351562 392h-5c-5.523437 0-10 4.476562-10 10s4.476563 10 10 10h5c5.519532 0 10-4.476562 10-10s-4.476562-10-10-10zm0 0"/><path d="m295.351562 392h-5c-5.523437 0-10 4.476562-10 10s4.476563 10 10 10h5c5.519532 0 10-4.476562 10-10s-4.476562-10-10-10zm0 0"/><path d="m331.492188 295c5.523437 0 10-4.476562 10-10s-4.476563-10-10-10h-5c-5.523438 0-10 4.476562-10 10s4.476562 10 10 10zm0 0"/><path d="m283.460938 143.925781c0-5.523437-4.476563-10-10-10h-5c-5.519532 0-10 4.476563-10 10 0 5.523438 4.480468 10 10 10h5c5.523437 0 10-4.476562 10-10zm0 0"/><path d="m179.691406 161.605469c1.53125 0 3.082032-.351563 4.539063-1.097657 1.269531-.648437 2.578125-1.257812 3.886719-1.8125 5.085937-2.152343 7.464843-8.023437 5.308593-13.109374-2.152343-5.082032-8.019531-7.460938-13.105469-5.304688-1.746093.738281-3.488281 1.550781-5.183593 2.414062-4.917969 2.511719-6.871094 8.535157-4.359375 13.453126 1.765625 3.464843 5.277344 5.457031 8.914062 5.457031zm0 0"/><path d="m223.460938 153.925781h5c5.523437 0 10-4.476562 10-10 0-5.523437-4.476563-10-10-10h-5c-5.519532 0-10 4.476563-10 10 0 5.523438 4.480468 10 10 10zm0 0"/><path d="m132.410156 228.550781c.855469 4.851563 5.074219 8.265625 9.835938 8.265625.578125 0 1.164062-.050781 1.75-.15625 5.441406-.960937 9.070312-6.148437 8.109375-11.585937-.246094-1.40625-.449219-2.832031-.59375-4.25-.574219-5.492188-5.511719-9.480469-10.984375-8.910157-5.492188.574219-9.480469 5.492188-8.910156 10.984376.195312 1.882812.464843 3.785156.792968 5.652343zm0 0"/><path d="m144.089844 191.976562c1.433594.714844 2.957031 1.054688 4.457031 1.054688 3.671875 0 7.203125-2.03125 8.957031-5.539062.632813-1.273438 1.324219-2.539063 2.046875-3.765626 2.808594-4.757812 1.230469-10.890624-3.527343-13.695312-4.753907-2.808594-10.882813-1.230469-13.695313 3.523438-.960937 1.628906-1.875 3.316406-2.722656 5.007812-2.464844 4.941406-.457031 10.949219 4.484375 13.414062zm0 0"/><path d="m155.359375 266.65625 1.332031 1.496094c1.976563 2.21875 4.71875 3.347656 7.472656 3.347656 2.363282 0 4.738282-.835938 6.644532-2.53125 4.125-3.675781 4.492187-9.996094.816406-14.121094l-1.332031-1.496094c-3.675781-4.121093-9.992188-4.488281-14.117188-.816406-4.125 3.675782-4.492187 9.996094-.816406 14.121094zm0 0"/><path d="m247.320312 273.398438c-.703124-4.214844-4.003906-7.515626-8.21875-8.21875-22.988281-3.835938-46.5625 3.710937-63.050781 20.199218l-19.164062 19.164063-121.082031-11.550781c-2.960938-.277344-5.914063.773437-8.023438 2.882812l-21.613281 21.617188c-2.25 2.25-3.296875 5.441406-2.8125 8.585937.480469 3.148437 2.433593 5.878906 5.257812 7.351563l78.464844 40.921874-24.964844 24.964844-25.832031-5.9375c-3.359375-.769531-6.875.242188-9.3125 2.675782l-23.539062 23.542968c-2.285157 2.285156-3.324219 5.53125-2.792969 8.722656.535156 3.1875 2.574219 5.917969 5.480469 7.335938l47.457031 23.144531 23.273437 47.589844c1.421875 2.902344 4.152344 4.941406 7.339844 5.472656.546875.089844 1.097656.136719 1.644531.136719 2.628907 0 5.183594-1.039062 7.070313-2.929688l23.542968-23.542968c2.4375-2.4375 3.449219-5.960938 2.671876-9.324219l-5.964844-25.785156 24.996094-24.996094 40.921874 78.460937c1.472657 2.824219 4.203126 4.777344 7.351563 5.261719.507813.078125 1.011719.117188 1.519531.117188 2.628906 0 5.179688-1.042969 7.070313-2.929688l21.613281-21.613281c2.109375-2.109375 3.164062-5.050781 2.882812-8.023438l-11.550781-121.082031 19.164063-19.164062c16.488281-16.488281 24.039062-40.058594 20.199218-63.050781zm-217.375 48.601562 8.648438-8.648438 99.953125 9.53125-36.644531 36.644532zm169.203126 151.90625-8.644532 8.644531-37.53125-71.953125 36.644532-36.644531zm-65.457032-72.3125c-.023437.023438-.042968.042969-.066406.066406l-38.539062 38.539063c-2.4375 2.441406-3.449219 5.964843-2.671876 9.328125l5.964844 25.78125-9.714844 9.71875-18.636718-38.101563c-.976563-2-2.597656-3.617187-4.597656-4.59375l-37.945313-18.507812 9.714844-9.710938 25.832031 5.933594c3.355469.773437 6.875-.238281 9.3125-2.671875l117.851562-117.855469c10.132813-10.132812 23.957032-15.613281 38.097657-15.3125.289062 14.132813-5.179688 27.964844-15.3125 38.097657zm0 0"/></symbol><symbol id="disabled-person" viewBox="0 0 512 512"><title>disabled-person</title><path d="m440.371 0h-368.742c-39.496 0-71.629 32.133-71.629 71.629v368.742c0 39.496 32.133 71.629 71.629 71.629h368.742c39.496 0 71.629-32.133 71.629-71.629v-368.742c0-39.496-32.133-71.629-71.629-71.629zm56.629 440.371c0 31.225-25.404 56.629-56.629 56.629h-368.742c-31.225 0-56.629-25.404-56.629-56.629v-368.742c0-31.225 25.404-56.629 56.629-56.629h368.742c31.225 0 56.629 25.404 56.629 56.629z"/><path d="m111.71 464.936h-40.081c-13.545 0-24.564-11.02-24.564-24.564v-368.743c0-13.545 11.02-24.565 24.564-24.565h304.611c4.142 0 7.5-3.358 7.5-7.5s-3.358-7.5-7.5-7.5h-304.611c-21.816 0-39.564 17.749-39.564 39.565v368.742c0 21.816 17.749 39.564 39.564 39.564h40.082c4.142 0 7.5-3.358 7.5-7.5s-3.358-7.499-7.501-7.499z"/><path d="m440.371 32.064h-32.068c-4.142 0-7.5 3.358-7.5 7.5s3.358 7.5 7.5 7.5h32.068c13.545 0 24.564 11.02 24.564 24.565v368.742c0 13.545-11.02 24.564-24.564 24.564h-296.596c-4.142 0-7.5 3.358-7.5 7.5s3.358 7.5 7.5 7.5h296.596c21.816 0 39.564-17.749 39.564-39.564v-368.742c.001-21.816-17.748-39.565-39.564-39.565z"/><path d="m231.952 423.823c30.711 0 59.338-12.207 80.608-34.371 2.868-2.989 2.771-7.736-.218-10.604s-7.737-2.771-10.604.218c-18.415 19.189-43.199 29.757-69.786 29.757-53.326 0-96.71-43.384-96.71-96.71 0-36.194 19.957-69.079 52.082-85.821 3.673-1.914 5.099-6.444 3.185-10.117s-6.443-5.1-10.117-3.185c-37.102 19.336-60.149 57.317-60.149 99.123-.001 61.597 50.111 111.71 111.709 111.71z"/><path d="m191.323 261.827c3.22-2.605 3.719-7.328 1.113-10.548-2.605-3.22-7.328-3.719-10.548-1.113-18.799 15.21-29.582 37.789-29.582 61.947 0 43.917 35.729 79.645 79.645 79.645 24.156 0 46.734-10.781 61.944-29.579 2.606-3.22 2.108-7.943-1.112-10.548s-7.942-2.107-10.548 1.113c-12.349 15.261-30.677 24.014-50.284 24.014-35.646 0-64.645-29-64.645-64.645.001-19.609 8.754-37.937 24.017-50.286z"/><path d="m338.095 408.332c3.367 9.266 12.254 15.491 22.114 15.491h24.049c12.976 0 23.532-10.557 23.532-23.532s-10.557-23.532-23.532-23.532h-7.566l-26.433-72.687c-3.367-9.266-12.254-15.491-22.114-15.491h-72.661v-41.113h48.613c12.976 0 23.532-10.556 23.532-23.532s-10.557-23.532-23.532-23.532h-48.613v-8.532c0-12.976-10.557-23.532-23.532-23.532s-23.532 10.556-23.532 23.532v120.242c0 12.976 10.557 23.532 23.532 23.532h79.711zm-114.676-96.219v-120.242c0-4.705 3.828-8.532 8.532-8.532s8.532 3.828 8.532 8.532v16.032c0 4.142 3.358 7.5 7.5 7.5h56.113c4.705 0 8.532 3.828 8.532 8.532s-3.828 8.532-8.532 8.532h-56.113c-4.142 0-7.5 3.358-7.5 7.5v56.113c0 4.142 3.358 7.5 7.5 7.5h80.161c3.575 0 6.796 2.256 8.017 5.616l28.229 77.625c1.078 2.964 3.895 4.937 7.048 4.937h12.819c4.705 0 8.532 3.828 8.532 8.532 0 4.705-3.828 8.532-8.532 8.532h-24.049c-3.574 0-6.796-2.256-8.017-5.616l-28.229-77.625c-1.078-2.964-3.895-4.937-7.048-4.937h-84.964c-4.703.001-8.531-3.826-8.531-8.531z"/><path d="m231.952 151.274c17.396 0 31.548-14.153 31.548-31.548s-14.152-31.548-31.548-31.548-31.548 14.153-31.548 31.548 14.152 31.548 31.548 31.548zm0-48.097c9.125 0 16.548 7.424 16.548 16.548s-7.423 16.548-16.548 16.548-16.548-7.424-16.548-16.548 7.423-16.548 16.548-16.548z"/></symbol><symbol id="wheelchair" viewBox="0 0 60 59"><title>wheelchair</title><title>031 - Wheelchair ramp</title><desc>Created with Sketch.</desc><defs/><g id="Page-1" stroke="none" stroke-width="1" fill="none" fill-rule="evenodd"><g id="031---Wheelchair-ramp" fill="#000000" fill-rule="nonzero"><path d="M19,4.5 C19,6.98528137 21.0147186,9 23.5,9 C25.9852814,9 28,6.98528137 28,4.5 C28,2.01471863 25.9852814,6.66133815e-16 23.5,0 C21.0158609,0.00275556448 19.0027556,2.01586091 19,4.5 Z M26,4.5 C26,5.88071187 24.8807119,7 23.5,7 C22.1192881,7 21,5.88071187 21,4.5 C21,3.11928813 22.1192881,2 23.5,2 C24.8807119,2 26,3.11928813 26,4.5 Z" id="Shape"/><path d="M59.568,35.177 C59.297696,34.9905524 58.9530815,34.9486903 58.646,35.065 L45.976,39.871 C46.0349473,39.0419073 45.7955402,38.2190564 45.301,37.551 L37.715,27.4 C37.0442201,26.5224398 36.0045491,26.0053743 34.9,26 L27,26 L27,23 L31.47,23 C32.4012131,23.0180222 33.30043,22.6601788 33.9646411,22.0072574 C34.6288522,21.354336 35.0020571,20.4613852 35,19.53 C35.0021289,19.3864507 34.9897325,19.2430542 34.963,19.102 C34.7514396,17.3330419 33.2515638,16.0010594 31.47,16 L27,16 L27,14.53 C27,12.5970034 25.4329966,11.03 23.5,11.03 C21.5670034,11.03 20,12.5970034 20,14.53 L20,14.56 C11.5211603,16.2722505 5.57526072,23.9360495 6.02364947,32.5744216 C6.47203822,41.2127937 13.1794499,48.2198021 21.79,49.045 L0.646,57.065 C0.194740246,57.2361636 -0.0698806752,57.7052079 0.0169730459,58.1799592 C0.103826767,58.6547105 0.517369456,58.9996877 1,59 L55,59 C57.7600532,58.9966939 59.9966939,56.7600532 60,54 L60,36 C59.9999906,35.6713451 59.8384923,35.363676 59.568,35.177 Z M22,14.53 C22.0005516,13.6852329 22.6852329,13.0005516 23.53,13 C23.9291602,13.0038482 24.3099631,13.1682346 24.5865246,13.4560842 C24.863086,13.7439339 25.0121149,14.1310052 25,14.53 L25,17 C25,17.5522847 25.4477153,18 26,18 L31.47,18 C32.2657083,18.0110807 32.9232044,18.6240228 32.99,19.417 C32.9969307,19.4542614 33.0002793,19.4921006 33,19.53 C32.9961518,19.9291602 32.8317654,20.3099631 32.5439158,20.5865246 C32.2560661,20.863086 31.8689948,21.0121149 31.47,21 L26,21 C25.4477153,21 25,21.4477153 25,22 L25,27 C25,27.5522847 25.4477153,28 26,28 L34.9,28 C35.3784246,28.0035356 35.8283676,28.2279534 36.119,28.608 L43.7,38.749 C44.1782466,39.3955606 44.0747236,40.3019324 43.463,40.824 L42.472,41.2 C41.9926246,41.2004723 41.5410029,40.9752171 41.253,40.592 L35.58,33 L34.442,31.421 C34.255131,31.1578538 33.9527458,31.0010752 33.63,31 L23.53,31 C22.6852329,30.9994484 22.0005516,30.3147671 22,29.47 L22,14.53 Z M23.53,33 L33.117,33 L33.656,33.726 C32.5810807,38.9436809 27.7372517,42.5054506 22.4363686,41.9760318 C17.1354856,41.446613 13.091762,36.9972105 13.07,31.67 C13.1012115,27.2748735 15.866567,23.3642699 20,21.87 L20,29.47 C20.0016542,31.4188796 21.5811204,32.9983458 23.53,33 Z M8,31.67 C8.05023647,24.4818935 13.0056987,18.2586588 20,16.6 L20,19.77 C14.0833988,21.5030413 10.3386383,27.3196478 11.2101766,33.4229275 C12.0817148,39.5262071 17.3048122,44.0622183 23.47,44.07 C28.7418538,44.0843645 33.4414735,40.7504463 35.17,35.77 L37.265,38.589 C34.058775,44.9968029 26.8673977,48.3590938 19.894451,46.7105095 C12.9215042,45.0619253 7.99722205,38.8351803 8,31.67 Z M38.594,40.37 L39.653,41.794 C39.755961,41.9177469 39.8672176,42.0343492 39.986,42.143 L36.213,43.574 C37.1263766,42.6003964 37.9252481,41.5253925 38.594,40.37 Z M58,54 C58,55.6568542 56.6568542,57 55,57 L6.456,57 L58,37.449 L58,54 Z" id="Shape"/></g></g></symbol><symbol id="team" viewBox="0 0 512 512"><title>team</title><g> <g> <path d="M451.72,237.26c-17.422-8.71-50.087-8.811-51.469-8.811c-4.142,0-7.5,3.358-7.5,7.5c0,4.142,3.358,7.5,7.5,7.5 c8.429,0.001,32.902,1.299,44.761,7.228c1.077,0.539,2.221,0.793,3.348,0.793c2.751,0,5.4-1.52,6.714-4.147 C456.927,243.618,455.425,239.113,451.72,237.26z"/> </g> </g><g> <g> <path d="M489.112,344.041l-30.975-8.85c-1.337-0.382-2.271-1.62-2.271-3.011v-10.339c2.52-1.746,4.924-3.7,7.171-5.881 c10.89-10.568,16.887-24.743,16.887-39.915v-14.267l2.995-5.989c3.287-6.575,5.024-13.936,5.024-21.286v-38.65 c0-4.142-3.358-7.5-7.5-7.5H408.27c-26.244,0-47.596,21.352-47.596,47.596v0.447c0,6.112,1.445,12.233,4.178,17.699l3.841,7.682 v12.25c0,19.414,9.567,36.833,24.058,47.315l0.002,10.836c0,1.671,0,2.363-6.193,4.133l-15.114,4.318l-43.721-15.898 c0.157-2.063-0.539-4.161-2.044-5.742l-13.971-14.678v-24.64c1.477-1.217,2.933-2.467,4.344-3.789 c17.625-16.52,27.733-39.844,27.733-63.991v-19.678c5.322-11.581,8.019-23.836,8.019-36.457v-80.19c0-4.142-3.358-7.5-7.5-7.5 H232.037c-39.51,0-71.653,32.144-71.653,71.653v16.039c0,12.621,2.697,24.876,8.019,36.457v16.931 c0,28.036,12.466,53.294,32.077,69.946v25.22l-13.971,14.678c-1.505,1.581-2.201,3.679-2.044,5.742l-46.145,16.779 c-3.344,1.216-6.451,2.863-9.272,4.858l-7.246-3.623c21.57-9.389,28.403-22.594,28.731-23.25c1.056-2.111,1.056-4.597,0-6.708 c-5.407-10.814-6.062-30.635-6.588-46.561c-0.175-5.302-0.341-10.311-0.658-14.771c-2.557-35.974-29.905-63.103-63.615-63.103 s-61.059,27.128-63.615,63.103c-0.317,4.461-0.483,9.47-0.658,14.773c-0.526,15.925-1.182,35.744-6.588,46.558 c-1.056,2.111-1.056,4.597,0,6.708c0.328,0.656,7.147,13.834,28.76,23.234l-20.127,10.063C6.684,358.176,0,368.991,0,381.02 v55.409c0,4.142,3.358,7.5,7.5,7.5s7.5-3.358,7.5-7.5V381.02c0-6.312,3.507-11.987,9.152-14.81l25.063-12.531l8.718,8.285 c6.096,5.793,13.916,8.688,21.739,8.688c7.821,0,15.645-2.897,21.739-8.688l8.717-8.284l8.172,4.086 c-3.848,6.157-6.032,13.377-6.032,20.94v57.725c0,4.142,3.358,7.5,7.5,7.5c4.142,0,7.5-3.358,7.5-7.5v-57.725 c0-10.296,6.501-19.578,16.178-23.097l48.652-17.691l20.253,30.381c2.589,3.884,6.738,6.375,11.383,6.835 c0.518,0.051,1.033,0.076,1.547,0.076c4.098,0,8.023-1.613,10.957-4.546l12.356-12.356v78.124c0,4.142,3.358,7.5,7.5,7.5 c4.142,0,7.5-3.358,7.5-7.5v-78.124l12.356,12.356c2.933,2.934,6.858,4.547,10.957,4.547c0.513,0,1.029-0.025,1.546-0.076 c4.646-0.46,8.795-2.951,11.384-6.835l20.254-30.38l48.651,17.691c9.676,3.519,16.178,12.801,16.178,23.097v57.725 c0,4.142,3.358,7.5,7.5,7.5c4.142,0,7.5-3.358,7.5-7.5v-57.725c0-10.428-4.143-20.208-11.093-27.441l1.853-0.529 c1.869-0.534,4.419-1.265,6.979-2.52l19.149,19.149v69.066c0,4.142,3.358,7.5,7.5,7.5c4.142,0,7.5-3.358,7.5-7.5v-69.066 l19.016-19.016c1.011,0.514,2.073,0.948,3.191,1.267l30.976,8.85c7.07,2.02,12.009,8.567,12.009,15.921v62.044 c0,4.142,3.358,7.5,7.5,7.5c4.142,0,7.5-3.358,7.5-7.5v-62.044C512,360.371,502.588,347.892,489.112,344.041z M48.115,330.794 c-14.029-5.048-21.066-11.778-24.07-15.453c2.048-5.354,3.376-11.486,4.275-17.959c4.136,9.917,11.063,18.383,19.795,24.423 V330.794z M91.08,351.092c-6.397,6.078-16.418,6.077-22.813-0.001l-6.975-6.628c1.177-2.205,1.824-4.705,1.824-7.324v-7.994 c5.232,1.635,10.794,2.517,16.558,2.517c5.757,0,11.316-0.886,16.557-2.512l-0.001,7.988c0,2.62,0.646,5.121,1.824,7.327 L91.08,351.092z M79.676,316.662c-22.396,0-40.615-18.22-40.615-40.615c0-4.142-3.358-7.5-7.5-7.5c-0.42,0-0.83,0.043-1.231,0.11 c0.022-0.645,0.043-1.291,0.065-1.93c0.167-5.157,0.328-10.028,0.625-14.206c0.958-13.476,6.343-25.894,15.163-34.968 c8.899-9.156,20.793-14.198,33.491-14.198s24.591,5.042,33.491,14.198c8.82,9.074,14.205,21.492,15.163,34.968 c0.296,4.177,0.458,9.047,0.628,14.203c0.015,0.443,0.03,0.892,0.045,1.338c-8.16-12.572-20.762-21.837-37.045-27.069 c-15.043-4.833-27.981-4.534-28.527-4.52c-1.964,0.055-3.828,0.877-5.191,2.291l-13.532,14.034 c-2.875,2.982-2.789,7.73,0.193,10.605s7.73,2.788,10.605-0.193l11.26-11.677c9.697,0.474,40.894,4.102,53.027,30.819 C116.738,302.04,99.816,316.662,79.676,316.662z M111.229,330.819l0.001-8.945c8.725-6.007,15.662-14.457,19.801-24.449 c0.899,6.458,2.226,12.576,4.27,17.918C132.314,318.983,125.244,325.773,111.229,330.819z M183.403,209.145v-18.608 c0-1.129-0.255-2.244-0.746-3.261c-4.826-9.994-7.273-20.598-7.273-31.518V139.72c0-31.239,25.415-56.653,56.653-56.653h104.769 v72.692c0,10.92-2.447,21.524-7.273,31.518c-0.491,1.017-0.746,2.132-0.746,3.261v21.355c0,20.311-8.165,39.15-22.991,53.047 c-1.851,1.734-3.772,3.36-5.758,4.875c-0.044,0.03-0.086,0.063-0.129,0.094c-13.889,10.545-30.901,15.67-48.667,14.519 C213.201,281.965,183.403,248.897,183.403,209.145z M225.632,360.056c-0.052,0.052-0.173,0.175-0.418,0.149 c-0.244-0.024-0.34-0.167-0.381-0.229l-23.325-34.988l7.506-7.887l35.385,24.187L225.632,360.056z M256.095,331.113 l-40.615-27.762v-14c10.509,5.681,22.276,9.234,34.791,10.044c1.977,0.128,3.942,0.191,5.901,0.191 c14.341,0,28.143-3.428,40.538-9.935v13.7L256.095,331.113z M287.357,359.978c-0.041,0.062-0.137,0.205-0.381,0.229 c-0.245,0.031-0.365-0.098-0.418-0.149l-18.767-18.767l35.385-24.188l7.507,7.887L287.357,359.978z M424.308,353.65l-17.02-17.019 c0.297-1.349,0.465-2.826,0.464-4.455l-0.001-3.165c4.723,1.55,9.701,2.47,14.852,2.624c0.578,0.018,1.151,0.026,1.727,0.026 c5.692,0,11.248-0.86,16.536-2.501v3.02c0,1.496,0.188,2.962,0.542,4.371L424.308,353.65z M452.591,305.196 c-7.949,7.714-18.45,11.788-29.537,11.446c-21.704-0.651-39.361-19.768-39.361-42.613v-14.021c0-1.165-0.271-2.313-0.792-3.354 l-4.633-9.266c-1.697-3.395-2.594-7.195-2.594-10.991v-0.447c0-17.974,14.623-32.596,32.596-32.596h64.673v31.15 c0,5.034-1.19,10.075-3.441,14.578l-3.786,7.572c-0.521,1.042-0.792,2.189-0.792,3.354v16.038 C464.924,287.126,460.544,297.478,452.591,305.196z"/> </g> </g><g> <g> <path d="M472.423,380.814c-4.142,0-7.5,3.358-7.5,7.5v48.115c0,4.142,3.358,7.5,7.5,7.5c4.142,0,7.5-3.358,7.5-7.5v-48.115 C479.923,384.173,476.565,380.814,472.423,380.814z"/> </g> </g><g> <g> <path d="M39.577,390.728c-4.142,0-7.5,3.358-7.5,7.5v38.201c0,4.142,3.358,7.5,7.5,7.5c4.142,0,7.5-3.358,7.5-7.5v-38.201 C47.077,394.087,43.719,390.728,39.577,390.728z"/> </g> </g><g> <g> <path d="M317.532,158.475c-28.366-28.366-87.715-22.943-111.917-19.295c-7.623,1.149-13.155,7.6-13.155,15.339v17.278 c0,4.142,3.358,7.5,7.5,7.5c4.142,0,7.5-3.358,7.5-7.5v-17.279c0-0.255,0.168-0.473,0.392-0.507 c9.667-1.457,28.85-3.705,48.725-2.38c23.388,1.557,40.328,7.428,50.349,17.45c2.929,2.929,7.678,2.929,10.606,0 C320.461,166.152,320.461,161.403,317.532,158.475z"/> </g> </g><g> <g> <path d="M167.884,396.853c-4.142,0-7.5,3.358-7.5,7.5v32.077c0,4.142,3.358,7.5,7.5,7.5c4.142,0,7.5-3.358,7.5-7.5v-32.077 C175.384,400.212,172.026,396.853,167.884,396.853z"/> </g> </g><g> <g> <path d="M344.306,396.853c-4.142,0-7.5,3.358-7.5,7.5v32.077c0,4.142,3.358,7.5,7.5,7.5c4.142,0,7.5-3.358,7.5-7.5v-32.077 C351.806,400.212,348.448,396.853,344.306,396.853z"/> </g> </g></symbol><symbol id="travel" viewBox="0 0 512 512"><title>travel</title><g> <g> <path d="M230.4,110.933H42.667C19.14,110.933,0,130.074,0,153.6v273.067c0,23.526,19.14,42.667,42.667,42.667H153.6v-17.067 H42.667c-14.114,0-25.6-11.486-25.6-25.6V153.6c0-14.114,11.486-25.6,25.6-25.6H230.4c14.114,0,25.6,11.486,25.6,25.6v8.533 h17.067V153.6C273.067,130.074,253.926,110.933,230.4,110.933z"/> </g> </g><g> <g> <path d="M187.733,0h-102.4c-14.114,0-25.6,11.486-25.6,25.6s11.486,25.6,25.6,25.6h102.4c14.114,0,25.6-11.486,25.6-25.6 S201.847,0,187.733,0z M187.733,34.133h-102.4c-4.702,0-8.533-3.831-8.533-8.533c0-4.702,3.831-8.533,8.533-8.533h102.4 c4.702,0,8.533,3.831,8.533,8.533C196.267,30.302,192.435,34.133,187.733,34.133z"/> </g> </g><g> <g> <rect x="93.867" y="42.667" width="17.067" height="76.8"/> </g> </g><g> <g> <rect x="162.133" y="42.667" width="17.067" height="76.8"/> </g> </g><g> <g> <rect x="51.2" y="256" width="17.067" height="153.6"/> </g> </g><g> <g> <rect x="153.6" y="162.133" width="17.067" height="68.267"/> </g> </g><g> <g> <path d="M38.4,452.267c-16.469,0-29.867,13.397-29.867,29.867S21.931,512,38.4,512c16.469,0,29.867-13.397,29.867-29.867 S54.869,452.267,38.4,452.267z M38.4,494.933c-7.057,0-12.8-5.743-12.8-12.8s5.743-12.8,12.8-12.8s12.8,5.743,12.8,12.8 S45.457,494.933,38.4,494.933z"/> </g> </g><g> <g> <rect x="102.4" y="162.133" width="17.067" height="247.467"/> </g> </g><g> <g> <path d="M93.261,235.759l-17.067-42.667c-0.853-2.133-2.534-3.831-4.659-4.71c-2.133-0.888-4.523-0.879-6.63,0.043l-59.733,25.6 C2.031,215.364,0,218.453,0,221.867v51.2c0,2.893,1.459,5.581,3.883,7.159c1.408,0.905,3.029,1.374,4.651,1.374 c1.178,0,2.355-0.239,3.473-0.742l76.8-34.133C92.996,244.864,94.959,240.026,93.261,235.759z M17.067,259.934V227.49 l46.524-19.934l10.769,26.914L17.067,259.934z"/> </g> </g><g> <g> <rect x="51.2" y="162.133" width="17.067" height="42.667"/> </g> </g><g> <g> <rect x="204.8" y="162.133" width="17.067" height="68.267"/> </g> </g><g> <g> <path d="M234.667,452.267c-16.469,0-29.867,13.397-29.867,29.867S218.197,512,234.667,512c16.469,0,29.867-13.397,29.867-29.867 S251.136,452.267,234.667,452.267z M234.667,494.933c-7.057,0-12.8-5.743-12.8-12.8s5.743-12.8,12.8-12.8s12.8,5.743,12.8,12.8 S241.724,494.933,234.667,494.933z"/> </g> </g><g> <g> <path d="M469.333,213.333H170.667C147.14,213.333,128,232.474,128,256v170.667c0,23.526,19.14,42.667,42.667,42.667h298.667 c23.526,0,42.667-19.14,42.667-42.667V256C512,232.474,492.86,213.333,469.333,213.333z M494.933,426.667 c0,14.114-11.486,25.6-25.6,25.6H170.667c-14.114,0-25.6-11.486-25.6-25.6V256c0-14.114,11.486-25.6,25.6-25.6h298.667 c14.114,0,25.6,11.486,25.6,25.6V426.667z"/> </g> </g><g> <g> <path d="M358.4,179.2h-76.8c-4.719,0-8.533,3.823-8.533,8.533v34.133h17.067v-25.6h59.733v25.6h17.067v-34.133 C366.933,183.023,363.119,179.2,358.4,179.2z"/> </g> </g><g> <g> <path d="M358.4,145.067h-76.8c-23.526,0-42.667,19.14-42.667,42.667v34.133H256v-34.133c0-14.114,11.486-25.6,25.6-25.6h76.8 c14.114,0,25.6,11.486,25.6,25.6v34.133h17.067v-34.133C401.067,164.207,381.926,145.067,358.4,145.067z"/> </g> </g><g> <g> <path d="M356.804,310.775l-42.667-59.733c-3.2-4.489-10.684-4.489-13.884,0l-42.667,59.733c-1.86,2.603-2.108,6.016-0.649,8.866 c1.468,2.842,4.395,4.625,7.595,4.625h85.333c3.2,0,6.127-1.783,7.586-4.625C358.912,316.792,358.665,313.378,356.804,310.775z M281.114,307.2l26.086-36.514l26.078,36.514H281.114z"/> </g> </g><g> <g> <path d="M440.004,335.59c-26.846-8.747-54.579,2.33-61.867,24.67c-3.652,11.179-1.749,23.296,5.359,34.133 c6.716,10.24,17.391,18.15,30.046,22.289c6.238,2.031,12.518,2.995,18.586,2.995c20.028,0,37.692-10.513,43.298-27.665 C482.722,369.656,466.833,344.346,440.004,335.59z M459.187,386.722c-4.369,13.414-22.485,19.567-40.354,13.739 c-8.994-2.944-16.478-8.422-21.077-15.428c-4.207-6.417-5.419-13.329-3.413-19.473c0,0,0,0,0.009,0 c3.251-9.975,14.106-15.932,26.803-15.932c4.378,0,8.969,0.7,13.534,2.193C452.574,357.666,463.556,373.316,459.187,386.722z"/> </g> </g><g> <g> <path d="M166.4,452.267c-16.469,0-29.867,13.397-29.867,29.867S149.931,512,166.4,512c16.469,0,29.867-13.397,29.867-29.867 S182.869,452.267,166.4,452.267z M166.4,494.933c-7.057,0-12.8-5.743-12.8-12.8s5.743-12.8,12.8-12.8s12.8,5.743,12.8,12.8 S173.457,494.933,166.4,494.933z"/> </g> </g><g> <g> <path d="M473.6,452.267c-16.469,0-29.867,13.397-29.867,29.867S457.131,512,473.6,512c16.469,0,29.867-13.397,29.867-29.867 S490.069,452.267,473.6,452.267z M473.6,494.933c-7.057,0-12.8-5.743-12.8-12.8s5.743-12.8,12.8-12.8s12.8,5.743,12.8,12.8 S480.657,494.933,473.6,494.933z"/> </g> </g><g> <g> <rect x="204.8" y="392.533" width="17.067" height="68.267"/> </g> </g><g> <g> <path d="M213.333,213.333H179.2c-4.71,0-8.533,3.823-8.533,8.533v102.4h17.067V230.4H204.8v110.933h17.067V221.867 C221.867,217.156,218.044,213.333,213.333,213.333z"/> </g> </g><g> <g> <rect x="170.667" y="366.933" width="17.067" height="93.867"/> </g> </g><g> <g> <rect x="452.267" y="401.067" width="17.067" height="59.733"/> </g> </g><g> <g> <path d="M460.8,213.333h-34.133c-4.719,0-8.533,3.823-8.533,8.533v119.467H435.2V230.4h17.067v128h17.067V221.867 C469.333,217.156,465.519,213.333,460.8,213.333z"/> </g> </g><g> <g> <rect x="418.133" y="409.6" width="17.067" height="51.2"/> </g> </g><g> <g> <path d="M243.234,351.019l-102.4-59.733l-8.602,14.754l95.488,55.697l-9.37,18.731l-77.431-46.456l-8.781,14.635l85.333,51.2 c1.348,0.802,2.859,1.22,4.395,1.22c0.802,0,1.604-0.111,2.389-0.341c2.278-0.666,4.181-2.253,5.248-4.378l17.067-34.133 C248.576,358.187,247.125,353.297,243.234,351.019z"/> </g> </g></symbol><symbol id="travel-1" viewBox="0 0 512 512"><title>travel-1</title><path d="m370.788 129.552h-36.278v-64.828c2.022-2 3.278-4.772 3.278-7.834v-22.165c0-19.147-15.577-34.725-34.725-34.725h-94.126c-19.147 0-34.725 15.578-34.725 34.726v22.164c0 3.062 1.257 5.835 3.279 7.835v64.828h-36.279c-21.825 0-39.581 17.756-39.581 39.581v274.188c0 17.113 10.918 31.721 26.153 37.232v9.726c0 11.977 9.744 21.721 21.721 21.721h9.003c11.977 0 21.721-9.744 21.721-21.721v-7.377h151.543v7.377c0 11.977 9.744 21.721 21.721 21.721h9.004c11.977 0 21.721-9.744 21.721-21.721v-9.726c15.235-5.512 26.153-20.12 26.153-37.232v-274.189c-.001-21.825-17.758-39.581-39.583-39.581zm-61.659 0v-61.636h10.381v61.636zm-91.258-64.828c2.022-2 3.278-4.772 3.278-7.834v-9.952h69.701v9.952c0 3.062 1.256 5.834 3.278 7.834v64.828h-76.258v-64.828zm-28.659-29.998c0-10.877 8.849-19.726 19.725-19.726h94.126c10.876 0 19.725 8.849 19.725 19.725v18.191h-16.938v-9.735c0-6.199-5.043-11.243-11.242-11.243h-77.216c-6.199 0-11.243 5.043-11.243 11.243v9.735h-16.938v-18.19zm3.278 33.19h10.38v61.636h-10.38zm-27.262 422.363c0 3.706-3.015 6.721-6.721 6.721h-9.003c-3.706 0-6.721-3.015-6.721-6.721v-7.377h22.445zm197.268 6.721h-9.004c-3.706 0-6.721-3.015-6.721-6.721v-7.377h22.445v7.377c.001 3.706-3.014 6.721-6.72 6.721zm32.874-53.679c0 13.554-11.027 24.582-24.582 24.582h-229.577c-13.554 0-24.581-11.027-24.581-24.582v-274.188c0-13.554 11.027-24.581 24.581-24.581h229.577c13.555 0 24.582 11.027 24.582 24.581z"/><path d="m172.335 178.609c-14.025 0-25.436 11.41-25.436 25.436v145.791c0 4.142 3.358 7.5 7.5 7.5s7.5-3.358 7.5-7.5v-145.792c0-5.754 4.681-10.436 10.436-10.436s10.436 4.681 10.436 10.436v213.293c0 5.754-4.681 10.436-10.436 10.436s-10.436-4.681-10.436-10.436v-32.419c0-4.142-3.358-7.5-7.5-7.5s-7.5 3.358-7.5 7.5v32.419c0 14.025 11.41 25.436 25.436 25.436s25.436-11.41 25.436-25.436v-213.293c-.001-14.025-11.411-25.435-25.436-25.435z"/><path d="m256 178.609c-14.025 0-25.436 11.41-25.436 25.436v213.293c0 14.025 11.41 25.436 25.436 25.436s25.436-11.41 25.436-25.436v-213.294c-.001-14.025-11.411-25.435-25.436-25.435zm10.435 238.729c0 5.754-4.682 10.436-10.436 10.436s-10.436-4.681-10.436-10.436v-213.294c0-5.754 4.681-10.436 10.436-10.436 5.754 0 10.436 4.681 10.436 10.436z"/><path d="m339.665 178.609c-14.025 0-25.436 11.41-25.436 25.436v29.631c0 4.142 3.357 7.5 7.5 7.5s7.5-3.358 7.5-7.5v-29.631c0-5.754 4.682-10.436 10.436-10.436s10.436 4.681 10.436 10.436v213.293c0 5.754-4.682 10.436-10.436 10.436s-10.436-4.681-10.436-10.436v-148.579c0-4.142-3.357-7.5-7.5-7.5s-7.5 3.358-7.5 7.5v148.579c0 14.025 11.41 25.436 25.436 25.436s25.436-11.41 25.436-25.436v-213.294c-.001-14.025-11.411-25.435-25.436-25.435z"/></symbol><symbol id="car" viewBox="1 -172 575.96023 575"><title>car</title><path d="M 240 86.890625 L 278.398438 86.890625 L 278.398438 106.09375 L 240 106.09375 Z M 240 86.890625 " style=" stroke:none;fill-rule:nonzero;fill:rgb(0%,0%,0%);fill-opacity:1;"/><path d="M 567.761719 58.1875 L 502.550781 48.875 C 490.660156 41.570312 478.320312 35.03125 465.597656 29.292969 C 423.582031 10.261719 377.980469 0.441406 331.851562 0.492188 L 320.523438 0.492188 C 266.085938 0.53125 212.519531 14.191406 164.707031 40.226562 L 131.796875 58.179688 C 93.273438 58.613281 55.492188 68.859375 22.023438 87.9375 C 8.421875 95.738281 0.0234375 110.210938 0 125.886719 L 0 182.890625 C 0 188.195312 4.296875 192.492188 9.601562 192.492188 L 41.835938 192.492188 C 52.320312 222.402344 85.066406 238.152344 114.976562 227.667969 C 131.441406 221.898438 144.382812 208.953125 150.152344 192.492188 L 406.636719 192.492188 C 417.121094 222.402344 449.867188 238.152344 479.777344 227.667969 C 496.238281 221.898438 509.183594 208.953125 514.953125 192.492188 L 518.398438 192.492188 C 519.621094 192.492188 520.832031 192.261719 521.96875 191.808594 L 553.0625 179.332031 C 566.953125 173.832031 576.050781 160.386719 576 145.453125 L 576 67.691406 C 576 62.917969 572.488281 58.867188 567.761719 58.1875 Z M 133.621094 180.972656 C 129.375 201.75 109.089844 215.152344 88.3125 210.90625 C 67.53125 206.660156 54.128906 186.375 58.375 165.59375 C 62.625 144.816406 82.910156 131.414062 103.6875 135.660156 C 121.566406 139.3125 134.402344 155.042969 134.398438 173.292969 C 134.398438 175.871094 134.136719 178.445312 133.621094 180.972656 Z M 307.199219 173.292969 L 153.597656 173.292969 C 153.597656 141.480469 127.8125 115.691406 96 115.691406 C 64.1875 115.691406 38.398438 141.480469 38.398438 173.292969 L 19.199219 173.292969 L 19.199219 125.886719 C 19.210938 117.09375 23.921875 108.972656 31.554688 104.605469 C 62.882812 86.71875 98.328125 77.304688 134.398438 77.292969 L 307.199219 77.292969 Z M 307.199219 58.09375 L 172.050781 58.09375 L 173.902344 57.082031 C 214.945312 34.777344 260.535156 22.132812 307.199219 20.113281 Z M 326.398438 19.691406 L 331.832031 19.691406 C 370.519531 19.648438 408.855469 26.992188 444.789062 41.332031 L 428.027344 58.09375 L 326.398438 58.09375 Z M 498.421875 180.972656 C 494.175781 201.75 473.890625 215.152344 453.109375 210.90625 C 432.332031 206.660156 418.929688 186.375 423.175781 165.59375 C 427.421875 144.816406 447.710938 131.414062 468.488281 135.660156 C 486.367188 139.3125 499.203125 155.042969 499.199219 173.292969 C 499.199219 175.871094 498.9375 178.445312 498.421875 180.972656 Z M 556.800781 86.890625 L 528 86.890625 L 528 106.09375 L 556.800781 106.09375 L 556.800781 145.453125 C 556.824219 152.527344 552.511719 158.894531 545.933594 161.492188 L 518.398438 172.550781 C 518.398438 171.667969 518.285156 170.792969 518.226562 169.910156 C 518.167969 169.027344 518.148438 167.992188 518.054688 167.03125 C 517.957031 166.070312 517.765625 165.109375 517.613281 164.152344 C 517.457031 163.191406 517.34375 162.230469 517.152344 161.359375 C 516.960938 160.484375 516.679688 159.515625 516.429688 158.601562 C 516.179688 157.691406 515.988281 156.769531 515.699219 155.875 C 515.414062 154.984375 515.066406 154.128906 514.742188 153.253906 C 514.414062 152.382812 514.117188 151.480469 513.78125 150.613281 C 513.445312 149.75 512.992188 148.964844 512.589844 148.148438 C 512.1875 147.332031 511.792969 146.4375 511.34375 145.613281 C 510.890625 144.789062 510.382812 144.085938 509.949219 143.320312 C 509.519531 142.550781 508.992188 141.675781 508.445312 140.890625 C 507.894531 140.101562 507.386719 139.480469 506.859375 138.769531 C 506.332031 138.058594 505.734375 137.222656 505.121094 136.484375 C 504.507812 135.746094 503.933594 135.167969 503.335938 134.5625 C 502.742188 133.960938 502.078125 133.144531 501.417969 132.472656 C 500.753906 131.800781 500.101562 131.269531 499.441406 130.675781 C 498.777344 130.082031 498.066406 129.378906 497.335938 128.753906 C 496.609375 128.132812 495.867188 127.652344 495.140625 127.105469 C 494.410156 126.558594 493.679688 125.972656 492.914062 125.460938 C 492.144531 124.953125 491.28125 124.503906 490.457031 123.964844 C 489.628906 123.425781 488.957031 123.003906 488.179688 122.59375 C 487.402344 122.179688 486.433594 121.746094 485.550781 121.324219 C 484.667969 120.902344 483.976562 120.527344 483.160156 120.183594 C 482.34375 119.835938 481.238281 119.472656 480.28125 119.128906 C 479.320312 118.78125 478.695312 118.511719 477.878906 118.253906 C 476.785156 117.917969 475.664062 117.675781 474.546875 117.398438 C 473.816406 117.226562 473.117188 116.996094 472.378906 116.84375 C 471.199219 116.601562 469.988281 116.46875 468.789062 116.292969 C 468.078125 116.199219 467.398438 116.042969 466.6875 115.976562 C 464.765625 115.785156 462.847656 115.679688 460.832031 115.679688 C 429.03125 115.710938 403.261719 141.480469 403.230469 173.28125 L 326.402344 173.28125 L 326.402344 77.289062 L 432 77.289062 C 434.546875 77.289062 436.988281 76.277344 438.785156 74.476562 L 463.679688 49.582031 C 474.128906 54.554688 484.289062 60.113281 494.113281 66.230469 C 495.246094 66.9375 496.511719 67.402344 497.835938 67.59375 L 556.800781 76.011719 Z M 556.800781 86.890625 " style=" stroke:none;fill-rule:nonzero;fill:rgb(0%,0%,0%);fill-opacity:1;"/></symbol><symbol id="van" viewBox="0 0 64 64"><title>van</title><path d="m59.949 25.536-10.484-10.486a6.958 6.958 0 0 0 -4.95-2.05h-39.515a3 3 0 0 0 -3 3v24a5.006 5.006 0 0 0 5 5h1.08a6.991 6.991 0 0 0 13.84 0h20.16a6.991 6.991 0 0 0 13.84 0h3.08a3 3 0 0 0 3-3v-11.515a6.951 6.951 0 0 0 -2.051-4.949zm-1.373 1.464h-18.576v-8h10.586l7.949 7.95c.016.016.026.034.041.05zm-20.576 0h-30v-8h30zm-34 13v-7h3v-2h-3v-15a1 1 0 0 1 1-1h39.515a4.973 4.973 0 0 1 3.536 1.464l.535.536h-40.586a2 2 0 0 0 -2 2v8a2 2 0 0 0 2 2h30v14h-16.08a6.991 6.991 0 0 0 -13.84 0h-1.08a3 3 0 0 1 -3-3zm11 9a5 5 0 1 1 5-5 5.006 5.006 0 0 1 -5 5zm34 0a5 5 0 1 1 5-5 5.006 5.006 0 0 1 -5 5zm10-6h-3.08a6.991 6.991 0 0 0 -13.84 0h-2.08v-14h19.752a5 5 0 0 1 .248 1.485v.515h-3a3 3 0 0 0 0 6h3v2h-3v2h3v1a1 1 0 0 1 -1 1zm1-10v2h-3a1 1 0 0 1 0-2z"/><path d="m42 31h4v2h-4z"/><path d="m14 43h2v2h-2z"/><path d="m48 43h2v2h-2z"/></symbol><symbol id="credit-card" viewBox="0 0 64 64"><title>credit-card</title><path d="m57 2h-50c-2.757 0-5 2.243-5 5v36c0 2.757 2.243 5 5 5h17.656l-2.4 8h-4.256c-.553 0-1 .448-1 1 0 2.757 2.243 5 5 5h20c2.757 0 5-2.243 5-5 0-.552-.447-1-1-1h-4.256l-2.4-8h17.656c2.757 0 5-2.243 5-5v-36c0-2.757-2.243-5-5-5zm-50 2h50c1.654 0 3 1.346 3 3v31h-56v-12h15v1c0 1.654 1.346 3 3 3h19.08c.488 3.387 3.401 6 6.92 6 3.859 0 7-3.14 7-7 0-3.519-2.614-6.432-6-6.92v-9.08c0-1.654-1.346-3-3-3h-17.764l-7.789-3.895c-.224-.111-.481-.137-.722-.067l-6.865 1.962h-8.86v-1c0-1.654 1.346-3 3-3zm34.08 24h-19.08c-.552 0-1-.449-1-1v-1h3.5c1.93 0 3.5-1.57 3.5-3.5 0-.539-.133-1.044-.351-1.5h19.351v1.08c-3.059.441-5.479 2.861-5.92 5.92zm-20.08-11h26v2h-26zm27 7c2.757 0 5 2.243 5 5s-2.243 5-5 5-5-2.243-5-5 2.243-5 5-5zm-1-9h-26v-2c0-.551.448-1 1-1h24c.552 0 1 .449 1 1zm-25-5c-1.654 0-3 1.346-3 3v6h-2v2h3 4.5c.827 0 1.5.673 1.5 1.5s-.673 1.5-1.5 1.5h-20.5v-14h9c.093 0 .186-.013.274-.039l6.626-1.893 3.864 1.932zm20 50h-20c-1.304 0-2.416-.836-2.829-2h25.658c-.413 1.164-1.525 2-2.829 2zm-2.344-4h-15.312l2.4-8h10.512zm17.344-10h-50c-1.654 0-3-1.346-3-3v-3h56v3c0 1.654-1.346 3-3 3z"/><path d="m47 32c.256 0 .512-.098.707-.293l4-4-1.414-1.414-3.293 3.293-1.293-1.293-1.414 1.414 2 2c.195.195.451.293.707.293z"/><path d="m29 23h2v2h-2z"/><path d="m33 23h2v2h-2z"/><path d="m37 23h2v2h-2z"/></symbol><symbol id="payment" viewBox="0 0 937.5 937.5"><title>payment</title><path d="M 781.25 165.53125 L 781.25 78.125 C 781.195312 35 746.25 0.0546875 703.125 0 L 78.125 0 C 35 0.0546875 0.0546875 35 0 78.125 L 0 421.875 C 0.121094 461.777344 30.367188 495.148438 70.0625 499.195312 L 128.796875 651.660156 C 144.3125 691.917969 189.523438 711.972656 229.785156 696.476562 L 596.5625 555.1875 C 571.21875 621.386719 578.429688 695.648438 616.023438 755.738281 L 625 770.09375 L 625 921.875 C 625 930.507812 631.992188 937.5 640.625 937.5 L 921.875 937.5 C 930.507812 937.5 937.5 930.507812 937.5 921.875 L 937.5 406.113281 C 937.351562 352.078125 915.839844 300.304688 877.636719 262.089844 Z M 781.25 258.976562 L 828.671875 382.078125 C 837.964844 406.242188 825.921875 433.355469 801.761719 442.65625 L 774.65625 453.125 C 778.984375 443.273438 781.226562 432.625 781.25 421.875 Z M 31.25 421.875 L 31.25 78.125 C 31.25 52.242188 52.242188 31.25 78.125 31.25 L 703.125 31.25 C 729.007812 31.25 750 52.242188 750 78.125 L 750 177.4375 L 749.863281 177.4375 L 750 177.792969 L 750 421.875 C 749.878906 424.601562 749.523438 427.304688 748.9375 429.96875 L 605.8125 286.828125 C 573.640625 255.398438 522.351562 255.15625 489.890625 286.257812 C 457.421875 317.378906 455.472656 368.628906 485.5 402.105469 L 546.515625 468.75 L 78.125 468.75 C 52.242188 468.75 31.25 447.757812 31.25 421.875 Z M 231.421875 500 L 120.3125 542.777344 L 103.875 500 Z M 218.546875 667.308594 C 194.390625 676.621094 167.261719 664.578125 157.953125 640.421875 L 131.59375 571.875 L 318.109375 500 L 318.109375 499.90625 L 575.15625 499.90625 L 595.464844 522.046875 Z M 906.25 906.25 L 656.25 906.25 L 656.25 781.25 L 906.25 781.25 Z M 906.25 750 L 649.296875 750 L 642.519531 739.171875 C 604.421875 678.289062 602.90625 601.390625 638.5625 539.0625 C 641.9375 533.164062 641.109375 525.757812 636.515625 520.75 L 508.472656 381.0625 C 489.378906 360.164062 490.453125 327.855469 510.894531 308.28125 C 531.34375 288.703125 563.667969 289.023438 583.714844 308.992188 L 832.703125 557.921875 L 854.796875 535.828125 L 796.984375 478.015625 L 813.015625 471.765625 C 853.242188 456.246094 873.289062 411.074219 857.8125 370.824219 L 804.925781 233.496094 L 855.542969 284.21875 C 887.886719 316.554688 906.125 360.375 906.25 406.113281 Z M 906.25 750 " style=" stroke:none;fill-rule:nonzero;fill:rgb(0%,0%,0%);fill-opacity:1;"/><path d="M 178.125 218.75 C 200.5625 218.75 218.75 200.5625 218.75 178.125 L 218.75 103.125 C 218.75 80.6875 200.5625 62.5 178.125 62.5 L 103.125 62.5 C 80.6875 62.5 62.5 80.6875 62.5 103.125 L 62.5 178.125 C 62.5 200.5625 80.6875 218.75 103.125 218.75 Z M 93.75 178.125 L 93.75 156.25 L 125 156.25 L 125 125 L 93.75 125 L 93.75 103.125 C 93.75 97.949219 97.949219 93.75 103.125 93.75 L 178.125 93.75 C 183.300781 93.75 187.5 97.949219 187.5 103.125 L 187.5 125 L 156.25 125 L 156.25 156.25 L 187.5 156.25 L 187.5 178.125 C 187.5 183.300781 183.300781 187.5 178.125 187.5 L 103.125 187.5 C 97.949219 187.5 93.75 183.300781 93.75 178.125 Z M 93.75 178.125 " style=" stroke:none;fill-rule:nonzero;fill:rgb(0%,0%,0%);fill-opacity:1;"/><path d="M 78.125 265.625 L 140.625 265.625 L 140.625 296.875 L 78.125 296.875 Z M 78.125 265.625 " style=" stroke:none;fill-rule:nonzero;fill:rgb(0%,0%,0%);fill-opacity:1;"/><path d="M 78.125 359.375 L 140.625 359.375 L 140.625 390.625 L 78.125 390.625 Z M 78.125 359.375 " style=" stroke:none;fill-rule:nonzero;fill:rgb(0%,0%,0%);fill-opacity:1;"/><path d="M 359.375 359.375 L 421.875 359.375 L 421.875 390.625 L 359.375 390.625 Z M 359.375 359.375 " style=" stroke:none;fill-rule:nonzero;fill:rgb(0%,0%,0%);fill-opacity:1;"/><path d="M 171.875 265.625 L 234.375 265.625 L 234.375 296.875 L 171.875 296.875 Z M 171.875 265.625 " style=" stroke:none;fill-rule:nonzero;fill:rgb(0%,0%,0%);fill-opacity:1;"/><path d="M 265.625 265.625 L 328.125 265.625 L 328.125 296.875 L 265.625 296.875 Z M 265.625 265.625 " style=" stroke:none;fill-rule:nonzero;fill:rgb(0%,0%,0%);fill-opacity:1;"/><path d="M 359.375 265.625 L 421.875 265.625 L 421.875 296.875 L 359.375 296.875 Z M 359.375 265.625 " style=" stroke:none;fill-rule:nonzero;fill:rgb(0%,0%,0%);fill-opacity:1;"/><path d="M 656.25 78.125 L 687.5 78.125 L 687.5 125 L 656.25 125 Z M 656.25 78.125 " style=" stroke:none;fill-rule:nonzero;fill:rgb(0%,0%,0%);fill-opacity:1;"/><path d="M 593.75 78.125 L 625 78.125 L 625 125 L 593.75 125 Z M 593.75 78.125 " style=" stroke:none;fill-rule:nonzero;fill:rgb(0%,0%,0%);fill-opacity:1;"/><path d="M 531.25 78.125 L 562.5 78.125 L 562.5 125 L 531.25 125 Z M 531.25 78.125 " style=" stroke:none;fill-rule:nonzero;fill:rgb(0%,0%,0%);fill-opacity:1;"/><path d="M 468.75 78.125 L 500 78.125 L 500 125 L 468.75 125 Z M 468.75 78.125 " style=" stroke:none;fill-rule:nonzero;fill:rgb(0%,0%,0%);fill-opacity:1;"/><path d="M 687.5 812.5 L 718.75 812.5 L 718.75 843.75 L 687.5 843.75 Z M 687.5 812.5 " style=" stroke:none;fill-rule:nonzero;fill:rgb(0%,0%,0%);fill-opacity:1;"/></symbol><symbol id="professional" viewBox="0 0 64 64"><title>professional</title><path d="M44,24a9.01,9.01,0,0,0,9-9V11a9,9,0,0,0-18,0v4A9.01,9.01,0,0,0,44,24ZM37,11a7,7,0,0,1,14,0v4a7,7,0,0,1-14,0Z"/><path d="M53,26H40v2h.323l1.659,4.148L40,53.909a1,1,0,0,0,.289.8l3,3a1,1,0,0,0,1.414,0l3-3a1,1,0,0,0,.289-.8L46.018,32.148,47.677,28H53a7.008,7.008,0,0,1,7,7V60H55V35H53V60H35V56H33v4H27v2H61a1,1,0,0,0,1-1V35A9.01,9.01,0,0,0,53,26Zm-7.477,2-1.2,3h-.646l-1.2-3ZM44,55.586l-1.962-1.962L43.913,33h.174l1.875,20.624Z"/><path d="M14.325,58.822l5.168,3.04a1,1,0,0,0,1.014,0l5.168-3.04A25.1,25.1,0,0,0,38,37.273V26a1,1,0,0,0-1-1,26.169,26.169,0,0,1-15.6-5.2l-.8-.6a1,1,0,0,0-1.2,0l-.8.6A26.164,26.164,0,0,1,3,25a1,1,0,0,0-1,1V37.273A25.1,25.1,0,0,0,14.325,58.822ZM4,26.981A28.182,28.182,0,0,0,19.8,21.4l.2-.149.2.149A28.182,28.182,0,0,0,36,26.981V37.273A23.092,23.092,0,0,1,24.662,57.1L20,59.84,15.338,57.1A23.092,23.092,0,0,1,4,37.273Z"/><path d="M16.353,55.374l3.14,1.848a1.007,1.007,0,0,0,1.014,0l3.14-1.847A21.084,21.084,0,0,0,34,37.273V29.736a1,1,0,0,0-.87-.991,30.354,30.354,0,0,1-12.583-4.661,1,1,0,0,0-1.094,0A30.364,30.364,0,0,1,6.87,28.745a1,1,0,0,0-.87.991v7.537A21.081,21.081,0,0,0,16.353,55.374ZM8,30.6a32.383,32.383,0,0,0,12-4.494A32.383,32.383,0,0,0,32,30.6v6.672A19.072,19.072,0,0,1,22.633,53.65L20,55.2l-2.634-1.55A19.07,19.07,0,0,1,8,37.273Z"/><rect x="19" y="29" width="2" height="2"/><rect x="10" y="32" width="2" height="2"/><rect x="10" y="39" width="2" height="2"/><rect x="28" y="32" width="2" height="2"/><rect x="28" y="39" width="2" height="2"/><rect x="13" y="45" width="2" height="2"/><rect x="25" y="45" width="2" height="2"/><rect x="19" y="50" width="2" height="2"/></symbol><symbol id="steering-wheel" viewBox="0 0 64 64"><title>steering-wheel</title><g><g><path d="m2.998 55.001c-.553 0-1-.447-1-1 0-4.963 4.037-9 9-9 .553 0 1 .447 1 1s-.447 1-1 1c-3.859 0-7 3.141-7 7 0 .553-.447 1-1 1z"/></g><g><path d="m16.998 47.002-6-.001c-.553 0-1-.448-1-1 0-.553.448-1 1-1l6 .001c.553 0 1 .448 1 1 0 .553-.448 1-1 1z"/></g><g><path d="m35.154 47.002-4.156-.002c-.553 0-1-.448-1-1 0-.553.448-1 1-1l4.156.002c.553 0 1 .448 1 1 0 .553-.448 1-1 1z"/></g><g><path d="m3 62c-.552 0-1-.447-1-1l-.002-6.999c0-.552.447-1 1-1 .552 0 1 .447 1 1l.002 6.999c0 .552-.447 1-1 1z"/></g></g><g><path d="m16.998 47.002c-.553 0-1-.447-1-1v-5.731c0-.553.447-1 1-1s1 .447 1 1v5.731c0 .553-.447 1-1 1z"/></g><g><path d="m30.998 47c-.553 0-1-.447-1-1v-5.729c0-.553.447-1 1-1s1 .447 1 1v5.729c0 .553-.447 1-1 1z"/></g><g><path d="m23.998 43.001c-8.822 0-16-7.178-16-16 0-.553.447-1 1-1s1 .447 1 1c0 7.72 6.28 14 14 14s14-6.28 14-14c0-.553.447-1 1-1s1 .447 1 1c0 8.822-7.178 16-16 16z"/></g><g><path d="m8.998 28.001c-.553 0-1-.447-1-1v-11.001c0-.553.447-1 1-1s1 .447 1 1v11.001c0 .553-.447 1-1 1z"/></g><g><path d="m38.998 28.001c-.553 0-1-.447-1-1v-11.999c0-.553.447-1 1-1s1 .447 1 1v11.999c0 .553-.447 1-1 1z"/></g><g><path d="m38.998 16.002c-.553 0-1-.447-1-1 0-3.309-2.691-6-6-6-.553 0-1-.447-1-1s.447-1 1-1c4.411 0 8 3.589 8 8 0 .553-.447 1-1 1z"/></g><g><path d="m31.998 9.002c-.553 0-1-.447-1-1v-5.002c0-.553.447-1 1-1s1 .447 1 1v5.002c0 .553-.447 1-1 1z"/></g><g><path d="m31.998 4h-10c-.553 0-1-.447-1-1s.447-1 1-1h10c.553 0 1 .447 1 1s-.447 1-1 1z"/></g><g><path d="m8.998 17c-.553 0-1-.447-1-1 0-7.72 6.28-14 14-14 .553 0 1 .447 1 1s-.447 1-1 1c-6.617 0-12 5.383-12 12 0 .553-.447 1-1 1z"/></g><g><g><path d="m38.998 22c-.256 0-.512-.098-.707-.293l-4-4c-.391-.391-.391-1.023 0-1.414s1.023-.391 1.414 0l4 4c.391.391.391 1.023 0 1.414-.195.195-.451.293-.707.293z"/></g><g><path d="m23.998 21c-6.206 0-11.301-3.015-11.515-3.143-.473-.284-.626-.897-.343-1.371.283-.472.894-.629 1.371-.345.049.03 4.851 2.859 10.487 2.859s10.438-2.829 10.486-2.858c.478-.284 1.088-.127 1.371.345.283.474.13 1.087-.343 1.371-.213.127-5.308 3.142-11.514 3.142z"/></g><g><path d="m8.998 22c-.256 0-.512-.098-.707-.293-.391-.391-.391-1.023 0-1.414l4-4c.391-.391 1.023-.391 1.414 0s.391 1.023 0 1.414l-4 4c-.195.195-.451.293-.707.293z"/></g></g><g><path d="m19.997 49c-.19 0-.383-.055-.554-.168l-3-1.998c-.459-.306-.584-.927-.277-1.387.306-.46.925-.583 1.387-.277l3 1.998c.459.306.584.927.277 1.387-.192.289-.51.445-.833.445z"/></g><g><path d="m19.997 49c-.448 0-.855-.303-.969-.758-.135-.536.191-1.078.728-1.212l4-.999c.534-.135 1.078.19 1.212.728.135.536-.191 1.078-.728 1.212l-4 .999c-.081.02-.163.03-.243.03z"/></g><g><path d="m27.999 49c-.323 0-.641-.156-.833-.445-.307-.46-.182-1.081.277-1.387l3-1.998c.46-.306 1.08-.183 1.387.277s.182 1.081-.277 1.387l-3 1.998c-.171.113-.364.168-.554.168z"/></g><g><path d="m27.999 49c-.08 0-.162-.01-.243-.03l-4-.999c-.536-.134-.862-.676-.728-1.212.133-.535.675-.863 1.212-.728l4 .999c.536.134.862.676.728 1.212-.114.454-.521.758-.969.758z"/></g><g><path d="m24.028 53c-.553 0-1.005-.447-1.005-1s.442-1 .994-1h.011c.552 0 1 .447 1 1s-.448 1-1 1z"/></g><g><path d="m24.028 59.001c-.553 0-1.005-.447-1.005-1s.442-1 .994-1h.011c.552 0 1 .447 1 1s-.448 1-1 1z"/></g><g><g><path d="m48.002 62c-7.72 0-14-6.281-14-14.003 0-7.72 6.28-14.001 14-14.001s14 6.281 14 14.001c0 7.722-6.28 14.003-14 14.003zm0-26.004c-6.617 0-12 5.384-12 12.001 0 6.618 5.383 12.003 12 12.003s12-5.385 12-12.003c0-6.617-5.383-12.001-12-12.001z"/></g><g><path d="m48.002 59c-6.065 0-11-4.936-11-11.003 0-6.066 4.935-11.001 11-11.001s11 4.935 11 11.001c0 6.067-4.935 11.003-11 11.003zm0-20.004c-4.963 0-9 4.038-9 9.001 0 4.964 4.037 9.003 9 9.003s9-4.039 9-9.003c0-4.963-4.037-9.001-9-9.001z"/></g><g><path d="m48.002 50.996c-1.654 0-3-1.346-3-3s1.346-3.001 3-3.001 3 1.347 3 3.001-1.346 3-3 3zm0-4.001c-.552 0-1 .449-1 1.001s.448 1 1 1 1-.448 1-1-.448-1.001-1-1.001z"/></g><g><path d="m56.664 43.996h-17.324c-.553 0-1-.447-1-1s.447-1 1-1h17.324c.553 0 1 .447 1 1s-.447 1-1 1z"/></g><g><path d="m50.004 58.789c-.006 0-.013 0-.019 0-.553-.011-.992-.467-.981-1.019.101-5.315 3.6-9.861 8.707-11.313.533-.153 1.084.157 1.235.688s-.157 1.084-.688 1.235c-4.255 1.21-7.17 4.998-7.254 9.427-.011.547-.456.982-1 .982z"/></g><g><path d="m46.004 58.799c-.544 0-.99-.437-1-.982-.079-4.436-2.994-8.228-7.255-9.437-.532-.15-.84-.703-.689-1.234.15-.532.705-.843 1.234-.689 5.115 1.451 8.615 6.002 8.71 11.325.01.552-.43 1.008-.982 1.018-.006-.001-.012-.001-.018-.001z"/></g></g></symbol><symbol id="diamond" viewBox="0 0 512 512"><title>diamond</title><g> <g> <path d="M506.135,221.963l-87.197-98.667c-1.898-2.148-4.627-3.378-7.493-3.378H100.556c-2.866,0-5.595,1.23-7.493,3.378 L5.865,221.963c-2.604,2.947-3.239,7.146-1.623,10.732c0.609,1.352,1.497,2.52,2.577,3.453c0.021,0.023,0.037,0.049,0.058,0.073 l241.642,272.415c1.898,2.14,4.621,3.364,7.481,3.364c2.86,0,5.583-1.225,7.481-3.364l241.642-272.415 c0.021-0.023,0.038-0.049,0.058-0.073c1.079-0.933,1.967-2.102,2.577-3.453C509.374,229.109,508.739,224.91,506.135,221.963z M393.713,139.917l-44.441,71.644l-71.22-71.644H393.713z M328.054,218.585H183.946L256,146.102L328.054,218.585z M233.948,139.918l-71.22,71.644l-44.441-71.644H233.948z M99.004,146.774l44.545,71.811H35.541L99.004,146.774z M35.709,238.585 h118.178l81.636,225.261L35.709,238.585z M276.848,463.428l57.038-154.372c1.914-5.181-0.734-10.932-5.914-12.846 c-5.183-1.916-10.933,0.733-12.846,5.914l-59.035,159.777L175.16,238.585h301.131L276.848,463.428z M368.451,218.585 l44.545-71.811l63.463,71.811H368.451z"/> </g> </g><g> <g> <path d="M256,0c-5.522,0-10,4.477-10,10v51.513c0,5.523,4.478,10,10,10c5.522,0,10-4.477,10-10V10C266,4.477,261.522,0,256,0z"/> </g> </g><g> <g> <path d="M347.062,39.524c-3.905-3.905-10.235-3.905-14.143,0l-36.426,36.425c-3.905,3.905-3.905,10.237,0,14.142 c1.954,1.953,4.513,2.929,7.072,2.929c2.559,0,5.118-0.977,7.071-2.929l36.426-36.425 C350.967,49.761,350.967,43.429,347.062,39.524z"/> </g> </g><g> <g> <path d="M213.558,75.949l-36.425-36.425c-3.904-3.905-10.234-3.905-14.143,0c-3.905,3.905-3.905,10.237,0,14.142l36.426,36.425 c1.953,1.953,4.512,2.929,7.071,2.929s5.118-0.977,7.071-2.929C217.463,86.186,217.463,79.854,213.558,75.949z"/> </g> </g><g> <g> <circle cx="337.43" cy="268.36" r="10"/> </g> </g></symbol><symbol id="booking" viewBox="0 0 60 60"><title>booking</title><circle id="Oval" cx="30" cy="45" r="1"/><path id="Shape" d="m57 4h-4v-1c0-1.65685425-1.3431458-3-3-3h-40c-1.65685425 0-3 1.34314575-3 3v1h-4c-1.65685425 0-3 1.34314575-3 3v40c0 1.6568542 1.34314575 3 3 3h17v3h-5c-2.209139 0-4 1.790861-4 4v1c0 1.1045695.8954305 2 2 2h34c1.1045695 0 2-.8954305 2-2v-1c0-2.209139-1.790861-4-4-4h-5v-3h17c1.6568542 0 3-1.3431458 3-3v-40c0-1.65685425-1.3431458-3-3-3zm0 2c.5522847 0 1 .44771525 1 1v33h-5v-34zm-48 4h42v30h-42zm0-7c0-.55228475.44771525-1 1-1h40c.5522847 0 1 .44771525 1 1v5h-42zm-6 3h4v34h-5v-33c0-.55228475.44771525-1 1-1zm44 51v1h-34v-1c0-1.1045695.8954305-2 2-2h30c1.1045695 0 2 .8954305 2 2zm-9-4h-16v-3h16zm19-5h-54c-.55228475 0-1-.4477153-1-1v-5h56v5c0 .5522847-.4477153 1-1 1z"/><circle id="Oval" cx="12" cy="5" r="1"/><circle id="Oval" cx="16" cy="5" r="1"/><circle id="Oval" cx="20" cy="5" r="1"/><path id="Shape" d="m41 12c-2.8563019.0036416-5.4939803 1.5298715-6.9205541 4.0044141-1.4265738 2.4745425-1.4256003 5.5219553.0025541 7.9955859h-3.463l-3.448-6.895c-.3369763-.67921-1.0307971-1.1077578-1.789-1.105h-1.382c-1.1045695 0-2 .8954305-2 2v6h-4.219l-1.619-6.478c-.2199846-.893763-1.0215623-1.521982-1.942-1.522h-1.22c-1.1045695 0-2 .8954305-2 2v10c0 1.6568542 1.3431458 3 3 3h8v5c0 1.1045695.8954305 2 2 2h1.382c.757085.0036993 1.4506196-.4227333 1.789-1.1l2.948-5.9h6.881c.8067176-.0002057 1.5790275-.3268164 2.1411146-.9054798.5620871-.5786635.8661198-1.3601372.8428854-2.1665202 2.9658217.4001099 5.9069524-.8885853 7.6232425-3.3402244s1.9206995-5.6561987.5298174-8.3060351c-1.3908821-2.6498365-4.1444382-4.301779-7.1370599-4.2817405zm-17 6h1.382l3 6h-4.382zm13 11h-6.009c.0029866-.4630066-.314105-.866755-.7646273-.9735898-.4505223-.1068347-.9151417.1115425-1.1203727.5265898l-3.724 7.447h-1.382v-7c0-.5522847-.4477153-1-1-1s-1 .4477153-1 1h-8c-.5522847 0-1-.4477153-1-1v-10h1.22l1.513 6.053c-.4800113.1310361-.788434.5976963-.7208322 1.090658.0676019.4929618.490266.8593651.9878322.856342 21.243 0 19.209-.03 19.8.071.6009882.5146004 1.2749909.9372001 2 1.254.2388069.3107592.2828396.7293074.1139311 1.0829596-.1689086.3536522-.5221297.5824673-.9139311.5920404zm4-3c-3.3137085 0-6-2.6862915-6-6s2.6862915-6 6-6 6 2.6862915 6 6c-.0033074 3.3123376-2.6876624 5.9966926-6 6z"/><path id="Shape" d="m42.2 17.4-2.308 3.078-.185-.185c-.3923789-.3789722-1.0160848-.3735524-1.4018186.0121814s-.3911536 1.0094397-.0121814 1.4018186c1.028 1.028 1.187 1.293 1.707 1.293.3147573 0 .6111456-.1481942.8-.4l3-4c.3313708-.4418278.2418278-1.0686292-.2-1.4s-1.0686292-.2418278-1.4.2z"/></symbol><symbol id="hotel" viewBox="0 0 480 480"><title>hotel</title><g> <g> <path d="M472,416h-8V128c0-17.673-14.327-32-32-32H296.888c4.526-10.071,6.947-20.96,7.112-32c0-35.346-28.654-64-64-64 c-35.346,0-64,28.654-64,64c0.165,11.04,2.586,21.929,7.112,32H48c-17.673,0-32,14.327-32,32v288H8c-4.418,0-8,3.582-8,8v24 c0,17.673,14.327,32,32,32h416c17.673,0,32-14.327,32-32v-24C480,419.582,476.418,416,472,416z M240,16 c26.499,0.026,47.974,21.501,48,48c0,35.504-35.128,67.376-48,77.864c-12.872-10.488-48-42.36-48-77.864 C192.026,37.501,213.501,16.026,240,16z M32,128c0-8.837,7.163-16,16-16h143.552c10.998,16.77,24.661,31.632,40.448,44v4 c0,17.673,14.327,32,32,32h48c8.837,0,16,7.163,16,16s-7.163,16-16,16H176c-17.673,0-32,14.327-32,32s14.327,32,32,32h168 c8.837,0,16,7.163,16,16s-7.163,16-16,16H144c-17.673,0-32,14.327-32,32v16H72V152h128v-16H64c-4.418,0-8,3.582-8,8v232 c0,4.418,3.582,8,8,8h352c4.418,0,8-3.582,8-8V144c0-4.418-3.582-8-8-8H280v16h128v216H128v-16c0-8.837,7.163-16,16-16h200 c17.673,0,32-14.327,32-32c0-17.673-14.327-32-32-32H176c-8.837,0-16-7.163-16-16s7.163-16,16-16h136c17.673,0,32-14.327,32-32 s-14.327-32-32-32h-48c-8.837,0-16-7.163-16-16v-4c15.787-12.368,29.45-27.23,40.448-44H432c8.837,0,16,7.163,16,16v288H312 c-2.122,0-4.156,0.844-5.656,2.344L292.688,432H187.312l-13.656-13.656c-1.5-1.5-3.534-2.344-5.656-2.344H32V128z M464,448 c0,8.837-7.163,16-16,16H32c-8.837,0-16-7.163-16-16v-16h148.688l13.656,13.656c1.5,1.5,3.534,2.344,5.656,2.344h112 c2.122,0,4.156-0.844,5.656-2.344L315.312,432H464V448z"/> </g> </g><g> <g> <rect x="232" y="400" width="16" height="16"/> </g> </g><g> <g> <path d="M240,32c-17.673,0-32,14.327-32,32s14.327,32,32,32c17.673,0,32-14.327,32-32S257.673,32,240,32z M240,80 c-8.837,0-16-7.163-16-16s7.163-16,16-16s16,7.163,16,16S248.837,80,240,80z"/> </g> </g></symbol><symbol id="mountains" viewBox="0 0 512.005 512.005"><title>mountains</title><g> <g> <path d="M509.805,236.432L366.485,93.114c-5.958-5.959-13.881-9.241-22.308-9.241s-16.349,3.282-22.308,9.241l-61.861,61.861 l-29.797-29.797c-5.958-5.959-13.881-9.24-22.308-9.24s-16.35,3.281-22.308,9.24L2.197,308.577c-2.929,2.929-2.929,7.678,0,10.606 c1.464,1.464,3.384,2.197,5.303,2.197s3.839-0.732,5.303-2.197L143.44,188.546l16.177,16.177c6.049,6.049,15.892,6.049,21.943,0 l14.382-14.382c0.038-0.037,0.151-0.151,0.365-0.151c0.213,0,0.327,0.114,0.365,0.151l13.986,13.986l-3.423,3.423 c-2.929,2.929-2.929,7.678,0,10.606c2.929,2.929,7.678,2.929,10.606,0l22.127-22.127l11.417,11.417 c4.587,4.588,10.614,6.881,16.64,6.881s12.052-2.293,16.64-6.881l14.716-14.716c2.929-2.929,2.929-7.678,0-10.606 c-2.929-2.929-7.678-2.929-10.606,0l-14.716,14.716c-3.327,3.328-8.74,3.327-12.067,0l-11.417-11.417l81.902-81.902 c3.125-3.125,7.281-4.847,11.701-4.847s8.576,1.722,11.702,4.847l70.128,70.128l-3.4,3.4c-3.317,3.317-8.708,3.327-12.037,0.03 c-0.015-0.015-0.03-0.03-0.044-0.044c-5.643-5.644-14.825-5.644-20.469,0l-14.544,14.544c-3.327,3.328-8.74,3.327-12.067,0 l-31.829-31.829c-2.734-2.734-6.369-4.24-10.234-4.24c-3.866,0-7.501,1.506-10.235,4.24c-2.929,2.929-2.929,7.678,0,10.606 c2.804,2.804,7.276,2.923,10.222,0.359l31.47,31.469c4.587,4.588,10.614,6.881,16.64,6.881c6.026,0,12.052-2.293,16.64-6.881 l14.176-14.175c9.202,8.82,23.864,8.702,32.919-0.354l3.4-3.4l62.583,62.583c1.464,1.464,3.384,2.197,5.303,2.197 s3.839-0.732,5.303-2.197C512.734,244.109,512.734,239.36,509.805,236.432z M221.264,193.72l-13.985-13.985 c-2.931-2.931-6.827-4.545-10.972-4.545s-8.042,1.614-10.972,4.545l-14.381,14.381c-0.202,0.201-0.529,0.202-0.73,0 l-16.177-16.177l42.155-42.154c6.452-6.452,16.951-6.452,23.403,0l29.797,29.797L221.264,193.72z"/> </g> </g><g> <g> <path d="M507.455,355.083c-0.776-0.333-7.444-3.137-19.503-6.743v-18.944H504.5c2.46,0,4.763-1.206,6.165-3.228 c1.401-2.022,1.722-4.602,0.858-6.905l-24.048-64.129c-1.098-2.927-3.896-4.867-7.022-4.867c-3.126,0-5.925,1.939-7.022,4.867 L455.106,304l-18.589-12.393c-2.52-1.68-5.801-1.68-8.32,0l-12.388,8.259v-10.035c0-1.989-0.79-3.897-2.197-5.303l-48.097-48.097 c-2.929-2.929-7.678-2.929-10.606,0l-45.528,45.528l-6.183-18.548c-1.021-3.063-3.887-5.128-7.115-5.128 c-3.228,0-6.094,2.066-7.115,5.128l-14.261,42.783l-19.605-58.815c-1.021-3.063-3.887-5.128-7.115-5.128s-6.094,2.066-7.115,5.128 l-24.048,72.145c-0.059,0.177-0.099,0.358-0.144,0.538l-11.486-11.486c-2.929-2.929-7.678-2.929-10.606,0l-24.048,24.048 c-1.407,1.406-2.197,3.314-2.197,5.303v35.51c-5.609,1.859-11.294,3.726-17.064,5.589v-33.083c0-1.989-0.79-3.897-2.197-5.303 l-26.762-26.761l73.731-73.731c2.929-2.929,2.929-7.678,0-10.606c-2.929-2.929-7.678-2.929-10.606,0l-73.731,73.731l-2.713-2.713 c-1.407-1.407-3.314-2.197-5.303-2.197s-3.897,0.79-5.303,2.197l-23.1,23.1l-4.655-12.414c-1.098-2.927-3.896-4.867-7.022-4.867 c-3.126,0-5.925,1.939-7.022,4.867l-24.048,64.129c-0.864,2.303-0.543,4.883,0.858,6.905c1.401,2.022,3.705,3.228,6.165,3.228 h16.548v19.543c-15.358,3.225-31.211,6.004-47.595,8.143c-4.107,0.536-7.002,4.3-6.466,8.408c0.493,3.778,3.717,6.53,7.428,6.53 c0.323,0,0.65-0.021,0.98-0.064c68.743-8.973,127.873-28.755,180.043-46.209c34.793-11.64,66.761-22.333,98.078-29.082v17.214 c0,4.142,3.358,7.5,7.5,7.5c4.142,0,7.5-3.358,7.5-7.5v-20.138c16.185-2.809,32.288-4.427,48.613-4.427 c93.274,0,148.809,23.21,149.352,23.442c3.809,1.632,8.216-0.132,9.848-3.939C513.026,361.123,511.262,356.715,507.455,355.083z M50.387,370.509l13.226-35.269l13.226,35.269H50.387z M136.275,383.786c-20.663,6.434-42.351,12.632-65.162,17.943v-16.22h16.548 c2.46,0,4.763-1.206,6.165-3.228c1.401-2.022,1.722-4.602,0.858-6.905l-13.608-36.288l22.618-22.618l32.581,32.581V383.786z M216.435,357.477c-10.144,3.286-20.366,6.704-30.692,10.158c-0.798,0.267-1.603,0.536-2.404,0.804v-27.405l16.548-16.548 l16.548,16.548V357.477z M247.984,273.468l13.643,40.928h-27.285L247.984,273.468z M240.484,349.954 c-3.011,0.902-6.027,1.823-9.048,2.761v-14.787c0-1.989-0.79-3.897-2.197-5.303l-3.229-3.229h14.474V349.954z M265.948,342.313 c0.106,0.147,0.225,0.28,0.34,0.417c-3.596,0.926-7.197,1.89-10.804,2.89v-16.225h11.487l-2.054,6.161 C264.155,337.844,264.538,340.358,265.948,342.313z M282.439,330.428l13.642-40.928l13.643,40.928H282.439z M400.806,332.497 c-14.819-1.285-31.046-2.07-48.613-2.07c-8.766,0.001-17.502,0.46-26.225,1.302l-6.356-19.067v-19.725l40.597-40.597 l40.597,40.597V332.497z M448.903,339.002c-9.874-1.851-20.929-3.576-33.097-4.987v-16.122l16.549-11.032l16.548,11.032V339.002z M480.452,279.127l13.226,35.269h-26.452L480.452,279.127z M472.952,344.238c-2.848-0.712-5.866-1.431-9.048-2.147v-12.696h9.048 V344.238z"/> </g> </g><g> <g> <path d="M111.71,354.476c-4.142,0-7.5,3.358-7.5,7.5v8.016c0,4.142,3.358,7.5,7.5,7.5c4.142,0,7.5-3.358,7.5-7.5v-8.016 C119.21,357.834,115.852,354.476,111.71,354.476z"/> </g> </g><g> <g> <path d="M344.177,290.348c-4.142,0-7.5,3.358-7.5,7.5v8.016c0,4.142,3.358,7.5,7.5,7.5c4.142,0,7.5-3.358,7.5-7.5v-8.016 C351.677,293.705,348.319,290.348,344.177,290.348z"/> </g> </g><g> <g> <path d="M376.242,290.348c-4.142,0-7.5,3.358-7.5,7.5v8.016c0,4.142,3.358,7.5,7.5,7.5c4.142,0,7.5-3.358,7.5-7.5v-8.016 C383.742,293.705,380.384,290.348,376.242,290.348z"/> </g> </g></symbol><symbol id="taxi" viewBox="0 0 64 64"><title>taxi</title><g><path d="m62.001 48.004c-.553 0-1-.447-1-1 0-2.454-1.753-4.528-4.168-4.932-.544-.091-.912-.606-.821-1.151.092-.544.605-.919 1.151-.821 3.383.565 5.838 3.469 5.838 6.904 0 .553-.447 1-1 1z"/></g><g><path d="m62.001 50.002c-.553 0-1-.447-1-1v-1.998c0-.553.447-1 1-1s1 .447 1 1v1.998c0 .553-.447 1-1 1z"/></g><g><path d="m63 55.002c-.553 0-1-.447-1-1v-4h-1c-.553 0-1-.447-1-1s.447-1 1-1h2c.553 0 1 .447 1 1v5c0 .553-.447 1-1 1z"/></g><g><path d="m44.173 55.002h-24.347c-.553 0-1-.447-1-1s.447-1 1-1h24.347c.553 0 1 .447 1 1s-.447 1-1 1z"/></g><g><path d="m5.003 55.002c-.208 0-.419-.065-.599-.2l-4.004-3c-.442-.331-.532-.957-.2-1.399.33-.44.956-.532 1.399-.2l4.004 3c.442.331.532.957.2 1.399-.196.261-.495.4-.8.4z"/></g><g><path d="m1 52.002c-.553 0-1-.447-1-1v-12.004c0-.553.447-1 1-1s1 .447 1 1v12.004c0 .553-.447 1-1 1z"/></g><g><path d="m6.002 39.998h-5.002c-.553 0-1-.447-1-1s.447-1 1-1h5.002c.553 0 1 .447 1 1s-.447 1-1 1z"/></g><g><path d="m46.001 40.998c-.235 0-.473-.083-.663-.252-.087-.078-8.862-7.75-19.343-7.75-10.539 0-19.291 6.723-19.379 6.791-.436.338-1.063.26-1.403-.175-.339-.436-.261-1.063.175-1.403.378-.294 9.388-7.213 20.607-7.213 11.256 0 20.292 7.918 20.671 8.255.413.366.45.998.084 1.411-.198.222-.473.336-.749.336z"/></g><g><path d="m57.002 42.086c-.032 0-.065-.002-.099-.005l-10.999-1.084c-.55-.054-.952-.544-.897-1.093.054-.549.539-.945 1.093-.897l10.999 1.084c.55.054.952.544.897 1.093-.051.516-.485.902-.994.902z"/></g><g><path d="m46.002 40.998h-21.998c-.553 0-1-.447-1-1s.447-1 1-1h21.998c.553 0 1 .447 1 1s-.447 1-1 1z"/></g><g><path d="m24.003 40.998c-.139 0-.28-.029-.414-.091l-11.002-5.025c-.503-.229-.724-.822-.494-1.324s.823-.725 1.324-.494l11.002 5.025c.503.229.724.822.494 1.324-.168.368-.53.585-.91.585z"/></g><g><path d="m24.004 40.998c-.553 0-1-.447-1-1v-7.918c0-.553.447-1 1-1s1 .447 1 1v7.918c0 .553-.447 1-1 1z"/></g><g><path d="m13.5 60.002c-4.136 0-7.5-3.364-7.5-7.5s3.364-7.5 7.5-7.5 7.5 3.364 7.5 7.5-3.364 7.5-7.5 7.5zm0-13c-3.032 0-5.5 2.468-5.5 5.5s2.468 5.5 5.5 5.5 5.5-2.468 5.5-5.5-2.468-5.5-5.5-5.5z"/></g><g><path d="m13.5 56.002c-1.93 0-3.5-1.57-3.5-3.5s1.57-3.5 3.5-3.5 3.5 1.57 3.5 3.5-1.57 3.5-3.5 3.5zm0-5c-.827 0-1.5.673-1.5 1.5s.673 1.5 1.5 1.5 1.5-.673 1.5-1.5-.673-1.5-1.5-1.5z"/></g><g><path d="m50.499 60.002c-4.136 0-7.5-3.364-7.5-7.5s3.364-7.5 7.5-7.5 7.5 3.364 7.5 7.5-3.364 7.5-7.5 7.5zm0-13c-3.032 0-5.5 2.468-5.5 5.5s2.468 5.5 5.5 5.5 5.5-2.468 5.5-5.5-2.468-5.5-5.5-5.5z"/></g><g><path d="m50.495 56.002c-1.93 0-3.5-1.57-3.5-3.5s1.57-3.5 3.5-3.5 3.5 1.57 3.5 3.5-1.57 3.5-3.5 3.5zm0-5c-.827 0-1.5.673-1.5 1.5s.673 1.5 1.5 1.5 1.5-.673 1.5-1.5-.673-1.5-1.5-1.5z"/></g><g><path d="m7.175 55.002h-2.171c-.553 0-1-.447-1-1s.447-1 1-1h2.171c.553 0 1 .447 1 1s-.447 1-1 1z"/></g><g><path d="m63 55.002h-6.176c-.553 0-1-.447-1-1s.447-1 1-1h6.176c.553 0 1 .447 1 1s-.447 1-1 1z"/></g><g><path d="m31 33.525c-.553 0-1-.447-1-1v-2.529h-7v2.297c0 .553-.447 1-1 1s-1-.447-1-1v-3.297c0-.553.447-1 1-1h9c.553 0 1 .447 1 1v3.529c0 .553-.447 1-1 1z"/></g><g><g><path d="m51.999 35.998c-6.617 0-12-5.383-12-12s5.383-12 12-12 12 5.383 12 12-5.383 12-12 12zm0-22c-5.514 0-10 4.486-10 10s4.486 10 10 10 10-4.486 10-10-4.486-10-10-10z"/></g><g><path d="m51.999 32.998c-4.963 0-9-4.037-9-9s4.037-9 9-9 9 4.037 9 9-4.037 9-9 9zm0-16c-3.859 0-7 3.141-7 7s3.141 7 7 7 7-3.141 7-7-3.141-7-7-7z"/></g><g><path d="m51.999 17.998c-.553 0-1-.447-1-1v-1c0-.553.447-1 1-1s1 .447 1 1v1c0 .553-.447 1-1 1z"/></g><g><path d="m51.999 32.998c-.553 0-1-.447-1-1v-1c0-.553.447-1 1-1s1 .447 1 1v1c0 .553-.447 1-1 1z"/></g><g><path d="m45.937 21.498c-.17 0-.341-.043-.498-.134l-.867-.5c-.479-.275-.644-.888-.367-1.365.274-.479.887-.643 1.365-.367l.867.5c.479.275.644.888.367 1.365-.185.321-.522.501-.867.501z"/></g><g><path d="m58.927 28.998c-.17 0-.341-.043-.498-.134l-.867-.5c-.479-.275-.644-.888-.367-1.365.275-.479.888-.645 1.365-.367l.867.5c.479.275.644.888.367 1.365-.185.321-.522.501-.867.501z"/></g><g><path d="m45.071 28.998c-.346 0-.683-.18-.867-.501-.276-.478-.111-1.09.367-1.365l.867-.5c.479-.276 1.091-.111 1.365.367.276.478.111 1.09-.367 1.365l-.867.5c-.157.091-.329.134-.498.134z"/></g><g><path d="m58.062 21.498c-.346 0-.683-.18-.867-.501-.276-.478-.111-1.09.367-1.365l.867-.5c.479-.277 1.091-.111 1.365.367.276.478.111 1.09-.367 1.365l-.867.5c-.158.091-.33.134-.498.134z"/></g><g><path d="m51.999 24.998c-.553 0-1-.447-1-1v-4c0-.553.447-1 1-1s1 .447 1 1v4c0 .553-.447 1-1 1z"/></g><g><path d="m51.998 13.998c-2.757 0-5-2.243-5-5s2.243-5 5-5 5 2.243 5 5-2.243 5-5 5zm0-8c-1.654 0-3 1.346-3 3s1.346 3 3 3 3-1.346 3-3-1.346-3-3-3z"/></g><g><path d="m51.998 13.998c-.553 0-1-.447-1-1v-3c0-.553.447-1 1-1s1 .447 1 1v3c0 .553-.447 1-1 1z"/></g><g><path d="m52.999 10.998h-2c-.553 0-1-.447-1-1s.447-1 1-1h2c.553 0 1 .447 1 1s-.447 1-1 1z"/></g></g></symbol><symbol id="seat" viewBox="0 0 511.999 511.999"><title>seat</title><path d="M6.575,32.883C6.56,32.829,6.588,32.938,6.575,32.883L6.575,32.883z"/><path d="M476.941,369.752c-16.625-14.585-37.491-21.077-58.74-18.291l-226.983,29.793l-8.959-86.883 c-4.157-47.996-15.325-95.014-33.196-139.75l-8.011-20.053c-6.298-15.766-18.287-28.042-33.078-34.843 c6.517-14.471,7.464-30.851,2.422-46.153c-0.048-0.147-0.101-0.293-0.159-0.437C97.622,21.557,67.506,0.703,33.511,0.005 c-8.32-0.164-16.168,3.434-21.458,9.891c-5.291,6.458-7.287,14.836-5.478,22.987l75.364,328.866 c0.904,4.059,4.925,6.62,8.99,5.716c4.06-0.904,6.619-4.928,5.716-8.99L45.112,126.961c-1.02-4.594,0.106-9.316,3.088-12.956 c2.983-3.64,7.398-5.65,12.095-5.576l21.59,0.443c4.458,0.091,8.801,0.775,12.944,1.983c0.203,0.071,0.408,0.135,0.614,0.188 c14.183,4.334,25.928,14.866,31.619,29.112l8.011,20.053c17.33,43.382,28.158,88.978,32.183,135.522 c0.003,0.041,0.007,0.082,0.011,0.124l9.007,87.361l-14.305,1.877c-9.679-13.01-26.432-19.876-43.251-16.126 c-22.793,5.086-37.21,27.769-32.136,50.564c0.01,0.041,0.02,0.083,0.029,0.126l18.445,76.641 c2.224,9.246,10.419,15.702,19.928,15.702h289.519c21.377,0,38.792-17.25,39.078-38.56h17.587 c19.249,0,34.908-16.815,34.908-37.482C506.078,410.128,495.458,385.997,476.941,369.752z M93.548,95.051 c-3.697-0.734-7.491-1.16-11.352-1.239l-21.59-0.443c-8.161-0.183-15.926,2.905-21.714,8.536L21.267,29.551 c-0.776-3.586,0.111-7.267,2.438-10.107c2.341-2.858,5.831-4.437,9.497-4.378C61.057,15.639,85.743,32.68,96.16,58.503 C100.103,70.661,99.124,83.701,93.548,95.051z M124.985,496.935L124.985,496.935c-2.521,0-4.692-1.711-5.281-4.161 l-18.429-76.575c-3.232-14.672,6.054-29.255,20.724-32.528c14.691-3.278,29.32,6.01,32.615,20.774l21.51,92.49H124.985z M471.17,458.375h-84.951c-4.16,0-7.532,3.372-7.532,7.532c0,4.16,3.372,7.532,7.532,7.532h52.299 c-0.285,13.003-10.944,23.496-24.014,23.496H191.59l-5.464-23.496h165.045c4.16,0,7.532-3.372,7.532-7.532 c0-4.16-3.372-7.532-7.532-7.532H182.622l-13.321-57.277c-0.129-0.579-0.277-1.149-0.429-1.717l251.289-32.983 c16.891-2.219,33.528,2.996,46.844,14.677c15.257,13.386,24.008,33.39,24.008,54.882 C491.013,448.319,482.112,458.375,471.17,458.375z"/></symbol><symbol id="24-hours" viewBox="0 0 512.001 512.001"><title>24-hours</title><g> <g> <path d="M400.147,131.245l87.687,6.388l6.388-87.686l-30.05-2.189l-2.513,34.499C413.521,30.176,345.737,0,273.78,0 c-141.16,0-256,114.842-256,256s114.842,256,256.001,256c85.357,0,164.845-42.459,212.629-113.579l-25.01-16.803 c-42.176,62.775-112.314,100.252-187.619,100.252C149.235,481.871,47.91,380.545,47.91,256S149.234,30.13,273.78,30.13 c64.05,0,124.351,27.126,166.9,73.857l-38.344-2.793L400.147,131.245z"/> </g> </g><g> <g> <path d="M148.036,284.294c0-9.686,9.687-15.972,23.45-22.94c15.802-7.986,26.847-17.162,26.847-36.874 c0-23.28-14.954-37.723-41.801-37.723c-23.11,0-40.272,11.045-47.749,19.541l16.823,18.013 c6.116-6.287,16.313-13.424,27.188-13.424c8.835,0,14.613,4.758,14.613,13.934c0,14.273-14.104,20.39-28.547,26.847 c-24.469,11.045-30.417,25.659-30.417,57.095h90.061v-24.469H148.036z"/> </g> </g><g> <g> <path d="M285.504,258.975v-71.029h-18.691l-56.076,71.029v24.299h47.579v25.319h27.188v-25.319h14.954v-24.299H285.504z M261.375,258.974h-23.62l23.62-30.247V258.974z"/> </g> </g><g> <g> <path d="M374.034,217.852c-13.084,0-24.469,6.117-30.927,16.653v-49.788h-27.188v124.046h27.188v-51.147 c3.4-9.516,12.406-15.803,18.862-15.803c7.817,0,12.914,5.268,12.914,16.823v50.128h27.189v-57.095 C402.071,236.205,397.992,217.852,374.034,217.852z"/> </g> </g></symbol></svg>